solid Exported from Blender-4.0.1
facet normal 0.315213 0.787397 -0.529761
outer loop
vertex -0.475352 -0.535429 -2.957217
vertex 0.922921 2.180249 1.911154
vertex 1.102744 2.102639 1.902798
endloop
endfacet
facet normal 0.315214 0.787397 -0.529761
outer loop
vertex -0.475352 -0.535429 -2.957217
vertex 1.102744 2.102639 1.902798
vertex -0.295529 -0.613038 -2.965573
endloop
endfacet
facet normal 0.488114 0.695032 -0.527897
outer loop
vertex -0.295529 -0.613038 -2.965573
vertex 1.102744 2.102639 1.902798
vertex 1.267057 1.996408 1.914863
endloop
endfacet
facet normal 0.488114 0.695032 -0.527897
outer loop
vertex -0.295529 -0.613038 -2.965573
vertex 1.267057 1.996408 1.914863
vertex -0.131216 -0.719270 -2.953508
endloop
endfacet
facet normal 0.642257 0.575957 -0.505747
outer loop
vertex -0.131216 -0.719270 -2.953508
vertex 1.267057 1.996408 1.914863
vertex 1.409545 1.865636 1.946885
endloop
endfacet
facet normal 0.642257 0.575956 -0.505747
outer loop
vertex -0.131216 -0.719270 -2.953508
vertex 1.409545 1.865636 1.946885
vertex 0.011272 -0.850041 -2.921486
endloop
endfacet
facet normal 0.771719 0.434747 -0.464161
outer loop
vertex 0.011272 -0.850041 -2.921486
vertex 1.409545 1.865636 1.946885
vertex 1.524732 1.715350 1.997634
endloop
endfacet
facet normal 0.771718 0.434748 -0.464161
outer loop
vertex 0.011272 -0.850041 -2.921486
vertex 1.524732 1.715350 1.997634
vertex 0.126459 -1.000327 -2.870737
endloop
endfacet
facet normal 0.871522 0.276832 -0.404738
outer loop
vertex 0.126459 -1.000327 -2.870737
vertex 1.524732 1.715350 1.997634
vertex 1.608192 1.551325 2.065159
endloop
endfacet
facet normal 0.871522 0.276833 -0.404738
outer loop
vertex 0.126459 -1.000327 -2.870737
vertex 1.608192 1.551325 2.065159
vertex 0.209919 -1.164352 -2.803212
endloop
endfacet
facet normal 0.937835 0.108277 -0.329760
outer loop
vertex 0.209919 -1.164352 -2.803212
vertex 1.608192 1.551325 2.065159
vertex 1.656718 1.379865 2.146866
endloop
endfacet
facet normal 0.937835 0.108278 -0.329760
outer loop
vertex 0.209919 -1.164352 -2.803212
vertex 1.656718 1.379865 2.146866
vertex 0.258445 -1.335813 -2.721505
endloop
endfacet
facet normal 0.968107 -0.064437 -0.242111
outer loop
vertex 0.258445 -1.335813 -2.721505
vertex 1.656718 1.379865 2.146866
vertex 1.668444 1.207558 2.239615
endloop
endfacet
facet normal 0.968106 -0.064438 -0.242111
outer loop
vertex 0.258445 -1.335813 -2.721505
vertex 1.668444 1.207558 2.239615
vertex 0.270171 -1.508119 -2.628756
endloop
endfacet
facet normal 0.961174 -0.234677 -0.145157
outer loop
vertex 0.270171 -1.508119 -2.628756
vertex 1.668444 1.207558 2.239615
vertex 1.642921 1.041026 2.339840
endloop
endfacet
facet normal 0.961175 -0.234676 -0.145157
outer loop
vertex 0.270171 -1.508119 -2.628756
vertex 1.642921 1.041026 2.339840
vertex 0.244648 -1.674651 -2.528531
endloop
endfacet
facet normal 0.917305 -0.395898 -0.042625
outer loop
vertex 0.244648 -1.674651 -2.528531
vertex 1.642921 1.041026 2.339840
vertex 1.581128 0.886670 2.443691
endloop
endfacet
facet normal 0.917305 -0.395898 -0.042625
outer loop
vertex 0.244648 -1.674651 -2.528531
vertex 1.581128 0.886670 2.443691
vertex 0.182855 -1.829008 -2.424680
endloop
endfacet
facet normal 0.838184 -0.541903 0.061545
outer loop
vertex 0.182855 -1.829008 -2.424680
vertex 1.581128 0.886670 2.443691
vertex 1.485441 0.750419 2.547178
endloop
endfacet
facet normal 0.838184 -0.541904 0.061545
outer loop
vertex 0.182855 -1.829008 -2.424680
vertex 1.485441 0.750419 2.547178
vertex 0.087168 -1.965258 -2.321193
endloop
endfacet
facet normal 0.726853 -0.667085 0.163350
outer loop
vertex 0.087168 -1.965258 -2.321193
vertex 1.485441 0.750419 2.547178
vertex 1.359536 0.637512 2.646321
endloop
endfacet
facet normal 0.726852 -0.667085 0.163350
outer loop
vertex 0.087168 -1.965258 -2.321193
vertex 1.359536 0.637512 2.646321
vertex -0.038736 -2.078165 -2.222050
endloop
endfacet
facet normal 0.587587 -0.766631 0.258878
outer loop
vertex -0.038736 -2.078165 -2.222050
vertex 1.359536 0.637512 2.646321
vertex 1.208253 0.552287 2.737313
endloop
endfacet
facet normal 0.587587 -0.766631 0.258878
outer loop
vertex -0.038736 -2.078165 -2.222050
vertex 1.208253 0.552287 2.737313
vertex -0.190020 -2.163391 -2.131058
endloop
endfacet
facet normal 0.425743 -0.836715 0.344457
outer loop
vertex -0.190020 -2.163391 -2.131058
vertex 1.208253 0.552287 2.737313
vertex 1.037405 0.498018 2.816655
endloop
endfacet
facet normal 0.425743 -0.836715 0.344457
outer loop
vertex -0.190020 -2.163391 -2.131058
vertex 1.037405 0.498018 2.816655
vertex -0.360868 -2.217659 -2.051716
endloop
endfacet
facet normal 0.247536 -0.874645 0.416799
outer loop
vertex -0.360868 -2.217659 -2.051716
vertex 1.037405 0.498018 2.816655
vertex 0.853557 0.476792 2.881299
endloop
endfacet
facet normal 0.247537 -0.874645 0.416799
outer loop
vertex -0.360868 -2.217659 -2.051716
vertex 0.853557 0.476792 2.881299
vertex -0.544716 -2.238885 -1.987072
endloop
endfacet
facet normal 0.059818 -0.878963 0.473123
outer loop
vertex -0.544716 -2.238885 -1.987072
vertex 0.853557 0.476792 2.881299
vertex 0.663775 0.489424 2.928761
endloop
endfacet
facet normal 0.059818 -0.878963 0.473123
outer loop
vertex -0.544716 -2.238885 -1.987072
vertex 0.663775 0.489424 2.928761
vertex -0.734498 -2.226254 -1.939610
endloop
endfacet
facet normal -0.130200 -0.849503 0.511266
outer loop
vertex -0.734498 -2.226254 -1.939610
vertex 0.663775 0.489424 2.928761
vertex 0.475352 0.535429 2.957217
endloop
endfacet
facet normal -0.130200 -0.849503 0.511266
outer loop
vertex -0.734498 -2.226254 -1.939610
vertex 0.475352 0.535429 2.957217
vertex -0.922921 -2.180249 -1.911154
endloop
endfacet
facet normal -0.315214 -0.787397 0.529760
outer loop
vertex -0.922921 -2.180249 -1.911154
vertex 0.475352 0.535429 2.957217
vertex 0.295529 0.613038 2.965573
endloop
endfacet
facet normal -0.315214 -0.787397 0.529761
outer loop
vertex -0.922921 -2.180249 -1.911154
vertex 0.295529 0.613038 2.965573
vertex -1.102744 -2.102639 -1.902798
endloop
endfacet
facet normal -0.488114 -0.695032 0.527897
outer loop
vertex -1.102744 -2.102639 -1.902798
vertex 0.295529 0.613038 2.965573
vertex 0.131216 0.719270 2.953508
endloop
endfacet
facet normal -0.488114 -0.695032 0.527897
outer loop
vertex -1.102744 -2.102639 -1.902798
vertex 0.131216 0.719270 2.953508
vertex -1.267057 -1.996408 -1.914863
endloop
endfacet
facet normal -0.642257 -0.575956 0.505747
outer loop
vertex -1.267057 -1.996408 -1.914863
vertex 0.131216 0.719270 2.953508
vertex -0.011272 0.850041 2.921486
endloop
endfacet
facet normal -0.642257 -0.575957 0.505747
outer loop
vertex -1.267057 -1.996408 -1.914863
vertex -0.011272 0.850041 2.921486
vertex -1.409545 -1.865636 -1.946885
endloop
endfacet
facet normal -0.771718 -0.434748 0.464161
outer loop
vertex -1.409545 -1.865636 -1.946885
vertex -0.011272 0.850041 2.921486
vertex -0.126459 1.000327 2.870737
endloop
endfacet
facet normal -0.771719 -0.434747 0.464161
outer loop
vertex -1.409545 -1.865636 -1.946885
vertex -0.126459 1.000327 2.870737
vertex -1.524732 -1.715350 -1.997634
endloop
endfacet
facet normal -0.871522 -0.276833 0.404738
outer loop
vertex -1.524732 -1.715350 -1.997634
vertex -0.126459 1.000327 2.870737
vertex -0.209919 1.164352 2.803212
endloop
endfacet
facet normal -0.871522 -0.276832 0.404738
outer loop
vertex -1.524732 -1.715350 -1.997634
vertex -0.209919 1.164352 2.803212
vertex -1.608192 -1.551325 -2.065159
endloop
endfacet
facet normal -0.937835 -0.108277 0.329760
outer loop
vertex -1.608192 -1.551325 -2.065159
vertex -0.209919 1.164352 2.803212
vertex -0.258445 1.335813 2.721505
endloop
endfacet
facet normal -0.937835 -0.108278 0.329760
outer loop
vertex -1.608192 -1.551325 -2.065159
vertex -0.258445 1.335813 2.721505
vertex -1.656718 -1.379865 -2.146866
endloop
endfacet
facet normal -0.968106 0.064439 0.242111
outer loop
vertex -1.656718 -1.379865 -2.146866
vertex -0.258445 1.335813 2.721505
vertex -0.270171 1.508119 2.628756
endloop
endfacet
facet normal -0.968106 0.064438 0.242111
outer loop
vertex -1.656718 -1.379865 -2.146866
vertex -0.270171 1.508119 2.628756
vertex -1.668444 -1.207558 -2.239615
endloop
endfacet
facet normal -0.961175 0.234676 0.145157
outer loop
vertex -1.668444 -1.207558 -2.239615
vertex -0.270171 1.508119 2.628756
vertex -0.244648 1.674651 2.528531
endloop
endfacet
facet normal -0.961174 0.234677 0.145157
outer loop
vertex -1.668444 -1.207558 -2.239615
vertex -0.244648 1.674651 2.528531
vertex -1.642921 -1.041026 -2.339840
endloop
endfacet
facet normal -0.917305 0.395897 0.042625
outer loop
vertex -1.642921 -1.041026 -2.339840
vertex -0.244648 1.674651 2.528531
vertex -0.182855 1.829008 2.424680
endloop
endfacet
facet normal -0.917305 0.395898 0.042625
outer loop
vertex -1.642921 -1.041026 -2.339840
vertex -0.182855 1.829008 2.424680
vertex -1.581128 -0.886670 -2.443691
endloop
endfacet
facet normal -0.838184 0.541904 -0.061545
outer loop
vertex -1.581128 -0.886670 -2.443691
vertex -0.182855 1.829008 2.424680
vertex -0.087168 1.965258 2.321193
endloop
endfacet
facet normal -0.838184 0.541904 -0.061545
outer loop
vertex -1.581128 -0.886670 -2.443691
vertex -0.087168 1.965258 2.321193
vertex -1.485441 -0.750419 -2.547178
endloop
endfacet
facet normal -0.726852 0.667085 -0.163350
outer loop
vertex -1.485441 -0.750419 -2.547178
vertex -0.087168 1.965258 2.321193
vertex 0.038736 2.078165 2.222050
endloop
endfacet
facet normal -0.726853 0.667085 -0.163350
outer loop
vertex -1.485441 -0.750419 -2.547178
vertex 0.038736 2.078165 2.222050
vertex -1.359536 -0.637512 -2.646321
endloop
endfacet
facet normal -0.587587 0.766631 -0.258879
outer loop
vertex -1.359536 -0.637512 -2.646321
vertex 0.038736 2.078165 2.222050
vertex 0.190020 2.163391 2.131058
endloop
endfacet
facet normal -0.587587 0.766631 -0.258878
outer loop
vertex -1.359536 -0.637512 -2.646321
vertex 0.190020 2.163391 2.131058
vertex -1.208253 -0.552287 -2.737313
endloop
endfacet
facet normal -0.425743 0.836715 -0.344457
outer loop
vertex -1.208253 -0.552287 -2.737313
vertex 0.190020 2.163391 2.131058
vertex 0.360868 2.217659 2.051716
endloop
endfacet
facet normal -0.425743 0.836715 -0.344457
outer loop
vertex -1.208253 -0.552287 -2.737313
vertex 0.360868 2.217659 2.051716
vertex -1.037405 -0.498018 -2.816655
endloop
endfacet
facet normal -0.247536 0.874645 -0.416799
outer loop
vertex -1.037405 -0.498018 -2.816655
vertex 0.360868 2.217659 2.051716
vertex 0.544716 2.238885 1.987072
endloop
endfacet
facet normal -0.247537 0.874645 -0.416799
outer loop
vertex -1.037405 -0.498018 -2.816655
vertex 0.544716 2.238885 1.987072
vertex -0.853557 -0.476792 -2.881299
endloop
endfacet
facet normal 0.243290 0.472515 0.847077
outer loop
vertex 1.267057 1.996408 1.914863
vertex 1.102744 2.102639 1.902798
vertex 0.922921 2.180249 1.911154
endloop
endfacet
facet normal 0.243294 0.472513 0.847077
outer loop
vertex 0.922921 2.180249 1.911154
vertex 0.734498 2.226254 1.939610
vertex 0.544716 2.238885 1.987072
endloop
endfacet
facet normal 0.243293 0.472514 0.847077
outer loop
vertex 0.544716 2.238885 1.987072
vertex 0.360868 2.217659 2.051716
vertex 0.190020 2.163391 2.131058
endloop
endfacet
facet normal 0.243299 0.472515 0.847074
outer loop
vertex 0.190020 2.163391 2.131058
vertex 0.038736 2.078165 2.222050
vertex -0.087168 1.965258 2.321193
endloop
endfacet
facet normal 0.243295 0.472518 0.847074
outer loop
vertex -0.087168 1.965258 2.321193
vertex -0.182855 1.829008 2.424680
vertex -0.244648 1.674651 2.528531
endloop
endfacet
facet normal 0.243294 0.472517 0.847075
outer loop
vertex -0.244648 1.674651 2.528531
vertex -0.270171 1.508119 2.628756
vertex -0.258445 1.335813 2.721505
endloop
endfacet
facet normal 0.243309 0.472518 0.847070
outer loop
vertex -0.258445 1.335813 2.721505
vertex -0.209919 1.164352 2.803212
vertex -0.126459 1.000327 2.870737
endloop
endfacet
facet normal 0.243299 0.472515 0.847075
outer loop
vertex -0.126459 1.000327 2.870737
vertex -0.011272 0.850041 2.921486
vertex 0.131216 0.719270 2.953508
endloop
endfacet
facet normal 0.243285 0.472512 0.847080
outer loop
vertex 0.131216 0.719270 2.953508
vertex 0.295529 0.613038 2.965573
vertex 0.475352 0.535429 2.957217
endloop
endfacet
facet normal 0.243293 0.472518 0.847075
outer loop
vertex 0.475352 0.535429 2.957217
vertex 0.663775 0.489424 2.928761
vertex 0.853557 0.476792 2.881299
endloop
endfacet
facet normal 0.243297 0.472520 0.847073
outer loop
vertex 0.853557 0.476792 2.881299
vertex 1.037405 0.498018 2.816655
vertex 1.208253 0.552287 2.737313
endloop
endfacet
facet normal 0.243293 0.472515 0.847076
outer loop
vertex 1.208253 0.552287 2.737313
vertex 1.359536 0.637512 2.646321
vertex 1.485441 0.750419 2.547178
endloop
endfacet
facet normal 0.243287 0.472515 0.847078
outer loop
vertex 1.485441 0.750419 2.547178
vertex 1.581128 0.886670 2.443691
vertex 1.642921 1.041026 2.339840
endloop
endfacet
facet normal 0.243286 0.472512 0.847080
outer loop
vertex 1.642921 1.041026 2.339840
vertex 1.668444 1.207558 2.239615
vertex 1.656718 1.379865 2.146866
endloop
endfacet
facet normal 0.243307 0.472515 0.847072
outer loop
vertex 1.656718 1.379865 2.146866
vertex 1.608192 1.551325 2.065159
vertex 1.524732 1.715350 1.997634
endloop
endfacet
facet normal 0.243300 0.472519 0.847072
outer loop
vertex 1.524732 1.715350 1.997634
vertex 1.409545 1.865636 1.946885
vertex 1.267057 1.996408 1.914863
endloop
endfacet
facet normal 0.243294 0.472517 0.847075
outer loop
vertex 1.267057 1.996408 1.914863
vertex 0.922921 2.180249 1.911154
vertex 0.544716 2.238885 1.987072
endloop
endfacet
facet normal 0.243296 0.472516 0.847075
outer loop
vertex 0.544716 2.238885 1.987072
vertex 0.190020 2.163391 2.131058
vertex -0.087168 1.965258 2.321193
endloop
endfacet
facet normal 0.243294 0.472516 0.847075
outer loop
vertex -0.087168 1.965258 2.321193
vertex -0.244648 1.674651 2.528531
vertex -0.258445 1.335813 2.721505
endloop
endfacet
facet normal 0.243292 0.472516 0.847076
outer loop
vertex -0.258445 1.335813 2.721505
vertex -0.126459 1.000327 2.870737
vertex 0.131216 0.719270 2.953508
endloop
endfacet
facet normal 0.243296 0.472516 0.847075
outer loop
vertex 0.131216 0.719270 2.953508
vertex 0.475352 0.535429 2.957217
vertex 0.853557 0.476792 2.881299
endloop
endfacet
facet normal 0.243294 0.472515 0.847076
outer loop
vertex 0.853557 0.476792 2.881299
vertex 1.208253 0.552287 2.737313
vertex 1.485441 0.750419 2.547178
endloop
endfacet
facet normal 0.243298 0.472515 0.847075
outer loop
vertex 1.485441 0.750419 2.547178
vertex 1.642921 1.041026 2.339840
vertex 1.656718 1.379865 2.146866
endloop
endfacet
facet normal 0.243293 0.472516 0.847076
outer loop
vertex 1.656718 1.379865 2.146866
vertex 1.524732 1.715350 1.997634
vertex 1.267057 1.996408 1.914863
endloop
endfacet
facet normal 0.243293 0.472516 0.847076
outer loop
vertex 1.267057 1.996408 1.914863
vertex 0.544716 2.238885 1.987072
vertex -0.087168 1.965258 2.321193
endloop
endfacet
facet normal 0.243294 0.472516 0.847075
outer loop
vertex -0.087168 1.965258 2.321193
vertex -0.258445 1.335813 2.721505
vertex 0.131216 0.719270 2.953508
endloop
endfacet
facet normal 0.243293 0.472516 0.847076
outer loop
vertex 0.131216 0.719270 2.953508
vertex 0.853557 0.476792 2.881299
vertex 1.485441 0.750419 2.547178
endloop
endfacet
facet normal 0.243293 0.472517 0.847075
outer loop
vertex 1.485441 0.750419 2.547178
vertex 1.656718 1.379865 2.146866
vertex 1.267057 1.996408 1.914863
endloop
endfacet
facet normal 0.243293 0.472516 0.847076
outer loop
vertex 1.267057 1.996408 1.914863
vertex -0.087168 1.965258 2.321193
vertex 0.131216 0.719270 2.953508
endloop
endfacet
facet normal 0.243294 0.472516 0.847075
outer loop
vertex 0.131216 0.719270 2.953508
vertex 1.485441 0.750419 2.547178
vertex 1.267057 1.996408 1.914863
endloop
endfacet
facet normal -0.059818 0.878963 -0.473123
outer loop
vertex -0.853557 -0.476792 -2.881299
vertex 0.544716 2.238885 1.987072
vertex 0.734498 2.226254 1.939610
endloop
endfacet
facet normal -0.059818 0.878963 -0.473123
outer loop
vertex -0.853557 -0.476792 -2.881299
vertex 0.734498 2.226254 1.939610
vertex -0.663775 -0.489424 -2.928761
endloop
endfacet
facet normal 0.130200 0.849503 -0.511266
outer loop
vertex -0.663775 -0.489424 -2.928761
vertex 0.734498 2.226254 1.939610
vertex 0.922921 2.180249 1.911154
endloop
endfacet
facet normal 0.130200 0.849503 -0.511266
outer loop
vertex -0.663775 -0.489424 -2.928761
vertex 0.922921 2.180249 1.911154
vertex -0.475352 -0.535429 -2.957217
endloop
endfacet
facet normal -0.243293 -0.472516 -0.847076
outer loop
vertex -0.663775 -0.489424 -2.928761
vertex -0.475352 -0.535429 -2.957217
vertex -0.295529 -0.613038 -2.965573
endloop
endfacet
facet normal -0.243300 -0.472514 -0.847075
outer loop
vertex -0.295529 -0.613038 -2.965573
vertex -0.131216 -0.719270 -2.953508
vertex 0.011272 -0.850041 -2.921486
endloop
endfacet
facet normal -0.243279 -0.472514 -0.847080
outer loop
vertex 0.011272 -0.850041 -2.921486
vertex 0.126459 -1.000327 -2.870737
vertex 0.209919 -1.164352 -2.803212
endloop
endfacet
facet normal -0.243300 -0.472515 -0.847074
outer loop
vertex 0.209919 -1.164352 -2.803212
vertex 0.258445 -1.335813 -2.721505
vertex 0.270171 -1.508119 -2.628756
endloop
endfacet
facet normal -0.243294 -0.472516 -0.847075
outer loop
vertex 0.270171 -1.508119 -2.628756
vertex 0.244648 -1.674651 -2.528531
vertex 0.182855 -1.829008 -2.424680
endloop
endfacet
facet normal -0.243293 -0.472519 -0.847074
outer loop
vertex 0.182855 -1.829008 -2.424680
vertex 0.087168 -1.965258 -2.321193
vertex -0.038736 -2.078165 -2.222050
endloop
endfacet
facet normal -0.243299 -0.472506 -0.847080
outer loop
vertex -0.038736 -2.078165 -2.222050
vertex -0.190020 -2.163391 -2.131058
vertex -0.360868 -2.217659 -2.051716
endloop
endfacet
facet normal -0.243291 -0.472513 -0.847078
outer loop
vertex -0.360868 -2.217659 -2.051716
vertex -0.544716 -2.238885 -1.987072
vertex -0.734498 -2.226254 -1.939610
endloop
endfacet
facet normal -0.243294 -0.472511 -0.847078
outer loop
vertex -0.734498 -2.226254 -1.939610
vertex -0.922921 -2.180249 -1.911154
vertex -1.102744 -2.102639 -1.902798
endloop
endfacet
facet normal -0.243292 -0.472513 -0.847078
outer loop
vertex -1.102744 -2.102639 -1.902798
vertex -1.267057 -1.996408 -1.914863
vertex -1.409545 -1.865636 -1.946885
endloop
endfacet
facet normal -0.243288 -0.472513 -0.847079
outer loop
vertex -1.409545 -1.865636 -1.946885
vertex -1.524732 -1.715350 -1.997634
vertex -1.608192 -1.551325 -2.065159
endloop
endfacet
facet normal -0.243301 -0.472514 -0.847075
outer loop
vertex -1.608192 -1.551325 -2.065159
vertex -1.656718 -1.379865 -2.146866
vertex -1.668444 -1.207558 -2.239615
endloop
endfacet
facet normal -0.243294 -0.472512 -0.847078
outer loop
vertex -1.668444 -1.207558 -2.239615
vertex -1.642921 -1.041026 -2.339840
vertex -1.581128 -0.886670 -2.443691
endloop
endfacet
facet normal -0.243284 -0.472525 -0.847073
outer loop
vertex -1.581128 -0.886670 -2.443691
vertex -1.485441 -0.750419 -2.547178
vertex -1.359536 -0.637512 -2.646321
endloop
endfacet
facet normal -0.243305 -0.472507 -0.847077
outer loop
vertex -1.359536 -0.637512 -2.646321
vertex -1.208253 -0.552287 -2.737313
vertex -1.037405 -0.498018 -2.816655
endloop
endfacet
facet normal -0.243292 -0.472515 -0.847077
outer loop
vertex -1.037405 -0.498018 -2.816655
vertex -0.853557 -0.476792 -2.881299
vertex -0.663775 -0.489424 -2.928761
endloop
endfacet
facet normal -0.243292 -0.472515 -0.847076
outer loop
vertex -0.663775 -0.489424 -2.928761
vertex -0.295529 -0.613038 -2.965573
vertex 0.011272 -0.850041 -2.921486
endloop
endfacet
facet normal -0.243290 -0.472517 -0.847076
outer loop
vertex 0.011272 -0.850041 -2.921486
vertex 0.209919 -1.164352 -2.803212
vertex 0.270171 -1.508119 -2.628756
endloop
endfacet
facet normal -0.243294 -0.472515 -0.847076
outer loop
vertex 0.270171 -1.508119 -2.628756
vertex 0.182855 -1.829008 -2.424680
vertex -0.038736 -2.078165 -2.222050
endloop
endfacet
facet normal -0.243293 -0.472517 -0.847075
outer loop
vertex -0.038736 -2.078165 -2.222050
vertex -0.360868 -2.217659 -2.051716
vertex -0.734498 -2.226254 -1.939610
endloop
endfacet
facet normal -0.243292 -0.472514 -0.847077
outer loop
vertex -0.734498 -2.226254 -1.939610
vertex -1.102744 -2.102639 -1.902798
vertex -1.409545 -1.865636 -1.946885
endloop
endfacet
facet normal -0.243288 -0.472517 -0.847077
outer loop
vertex -1.409545 -1.865636 -1.946885
vertex -1.608192 -1.551325 -2.065159
vertex -1.668444 -1.207558 -2.239615
endloop
endfacet
facet normal -0.243293 -0.472516 -0.847076
outer loop
vertex -1.668444 -1.207558 -2.239615
vertex -1.581128 -0.886670 -2.443691
vertex -1.359536 -0.637512 -2.646321
endloop
endfacet
facet normal -0.243293 -0.472517 -0.847075
outer loop
vertex -1.359536 -0.637512 -2.646321
vertex -1.037405 -0.498018 -2.816655
vertex -0.663775 -0.489424 -2.928761
endloop
endfacet
facet normal -0.243294 -0.472516 -0.847075
outer loop
vertex -0.663775 -0.489424 -2.928761
vertex 0.011272 -0.850041 -2.921486
vertex 0.270171 -1.508119 -2.628756
endloop
endfacet
facet normal -0.243293 -0.472517 -0.847075
outer loop
vertex 0.270171 -1.508119 -2.628756
vertex -0.038736 -2.078165 -2.222050
vertex -0.734498 -2.226254 -1.939610
endloop
endfacet
facet normal -0.243294 -0.472516 -0.847075
outer loop
vertex -0.734498 -2.226254 -1.939610
vertex -1.409545 -1.865636 -1.946885
vertex -1.668444 -1.207558 -2.239615
endloop
endfacet
facet normal -0.243293 -0.472516 -0.847075
outer loop
vertex -1.668444 -1.207558 -2.239615
vertex -1.359536 -0.637512 -2.646321
vertex -0.663775 -0.489424 -2.928761
endloop
endfacet
facet normal -0.243294 -0.472516 -0.847075
outer loop
vertex -0.663775 -0.489424 -2.928761
vertex 0.270171 -1.508119 -2.628756
vertex -0.734498 -2.226254 -1.939610
endloop
endfacet
facet normal -0.243293 -0.472516 -0.847075
outer loop
vertex -0.734498 -2.226254 -1.939610
vertex -1.668444 -1.207558 -2.239615
vertex -0.663775 -0.489424 -2.928761
endloop
endfacet
endsolid Exported from Blender-4.0.1
