solid Exported from Blender-4.0.1
facet normal 0.096684 0.981652 -0.164350
outer loop
vertex 0.000000 0.847546 1.639730
vertex 0.000000 1.000000 2.550331
vertex 0.195090 0.980785 2.550331
endloop
endfacet
facet normal 0.096685 0.981652 -0.164350
outer loop
vertex 0.000000 0.847546 1.639730
vertex 0.195090 0.980785 2.550331
vertex 0.165348 0.831260 1.639730
endloop
endfacet
facet normal 0.286337 0.943928 -0.164350
outer loop
vertex 0.165348 0.831260 1.639730
vertex 0.195090 0.980785 2.550331
vertex 0.382683 0.923880 2.550331
endloop
endfacet
facet normal 0.286337 0.943928 -0.164350
outer loop
vertex 0.165348 0.831260 1.639730
vertex 0.382683 0.923880 2.550331
vertex 0.324342 0.783030 1.639730
endloop
endfacet
facet normal 0.464987 0.869929 -0.164350
outer loop
vertex 0.324342 0.783030 1.639730
vertex 0.382683 0.923880 2.550331
vertex 0.555570 0.831470 2.550331
endloop
endfacet
facet normal 0.464987 0.869929 -0.164350
outer loop
vertex 0.324342 0.783030 1.639730
vertex 0.555570 0.831470 2.550331
vertex 0.470871 0.704708 1.639730
endloop
endfacet
facet normal 0.625767 0.762499 -0.164350
outer loop
vertex 0.470871 0.704708 1.639730
vertex 0.555570 0.831470 2.550331
vertex 0.707107 0.707107 2.550331
endloop
endfacet
facet normal 0.625767 0.762499 -0.164350
outer loop
vertex 0.470871 0.704708 1.639730
vertex 0.707107 0.707107 2.550331
vertex 0.599305 0.599305 1.639730
endloop
endfacet
facet normal 0.762499 0.625767 -0.164350
outer loop
vertex 0.599305 0.599305 1.639730
vertex 0.707107 0.707107 2.550331
vertex 0.831470 0.555570 2.550331
endloop
endfacet
facet normal 0.762499 0.625767 -0.164350
outer loop
vertex 0.599305 0.599305 1.639730
vertex 0.831470 0.555570 2.550331
vertex 0.704708 0.470871 1.639730
endloop
endfacet
facet normal 0.869929 0.464987 -0.164350
outer loop
vertex 0.704708 0.470871 1.639730
vertex 0.831470 0.555570 2.550331
vertex 0.923880 0.382683 2.550331
endloop
endfacet
facet normal 0.869929 0.464987 -0.164350
outer loop
vertex 0.704708 0.470871 1.639730
vertex 0.923880 0.382683 2.550331
vertex 0.783030 0.324342 1.639730
endloop
endfacet
facet normal 0.943928 0.286338 -0.164350
outer loop
vertex 0.783030 0.324342 1.639730
vertex 0.923880 0.382683 2.550331
vertex 0.980785 0.195090 2.550331
endloop
endfacet
facet normal 0.943928 0.286337 -0.164350
outer loop
vertex 0.783030 0.324342 1.639730
vertex 0.980785 0.195090 2.550331
vertex 0.831260 0.165348 1.639730
endloop
endfacet
facet normal 0.981652 0.096684 -0.164350
outer loop
vertex 0.831260 0.165348 1.639730
vertex 0.980785 0.195090 2.550331
vertex 1.000000 0.000000 2.550331
endloop
endfacet
facet normal 0.981652 0.096685 -0.164350
outer loop
vertex 0.831260 0.165348 1.639730
vertex 1.000000 0.000000 2.550331
vertex 0.847546 0.000000 1.639730
endloop
endfacet
facet normal 0.981652 -0.096684 -0.164350
outer loop
vertex 0.847546 0.000000 1.639730
vertex 1.000000 0.000000 2.550331
vertex 0.980785 -0.195090 2.550331
endloop
endfacet
facet normal 0.981652 -0.096685 -0.164350
outer loop
vertex 0.847546 0.000000 1.639730
vertex 0.980785 -0.195090 2.550331
vertex 0.831260 -0.165348 1.639730
endloop
endfacet
facet normal 0.943928 -0.286337 -0.164350
outer loop
vertex 0.831260 -0.165348 1.639730
vertex 0.980785 -0.195090 2.550331
vertex 0.923880 -0.382683 2.550331
endloop
endfacet
facet normal 0.943928 -0.286337 -0.164350
outer loop
vertex 0.831260 -0.165348 1.639730
vertex 0.923880 -0.382683 2.550331
vertex 0.783030 -0.324342 1.639730
endloop
endfacet
facet normal 0.869929 -0.464987 -0.164350
outer loop
vertex 0.783030 -0.324342 1.639730
vertex 0.923880 -0.382683 2.550331
vertex 0.831470 -0.555570 2.550331
endloop
endfacet
facet normal 0.869929 -0.464986 -0.164350
outer loop
vertex 0.783030 -0.324342 1.639730
vertex 0.831470 -0.555570 2.550331
vertex 0.704708 -0.470871 1.639730
endloop
endfacet
facet normal 0.762499 -0.625767 -0.164350
outer loop
vertex 0.704708 -0.470871 1.639730
vertex 0.831470 -0.555570 2.550331
vertex 0.707107 -0.707107 2.550331
endloop
endfacet
facet normal 0.762499 -0.625767 -0.164350
outer loop
vertex 0.704708 -0.470871 1.639730
vertex 0.707107 -0.707107 2.550331
vertex 0.599305 -0.599305 1.639730
endloop
endfacet
facet normal 0.625767 -0.762499 -0.164350
outer loop
vertex 0.599305 -0.599305 1.639730
vertex 0.707107 -0.707107 2.550331
vertex 0.555570 -0.831470 2.550331
endloop
endfacet
facet normal 0.625767 -0.762499 -0.164350
outer loop
vertex 0.599305 -0.599305 1.639730
vertex 0.555570 -0.831470 2.550331
vertex 0.470871 -0.704708 1.639730
endloop
endfacet
facet normal 0.464987 -0.869929 -0.164350
outer loop
vertex 0.470871 -0.704708 1.639730
vertex 0.555570 -0.831470 2.550331
vertex 0.382683 -0.923880 2.550331
endloop
endfacet
facet normal 0.464987 -0.869929 -0.164350
outer loop
vertex 0.470871 -0.704708 1.639730
vertex 0.382683 -0.923880 2.550331
vertex 0.324342 -0.783030 1.639730
endloop
endfacet
facet normal 0.286337 -0.943928 -0.164350
outer loop
vertex 0.324342 -0.783030 1.639730
vertex 0.382683 -0.923880 2.550331
vertex 0.195090 -0.980785 2.550331
endloop
endfacet
facet normal 0.286337 -0.943928 -0.164350
outer loop
vertex 0.324342 -0.783030 1.639730
vertex 0.195090 -0.980785 2.550331
vertex 0.165348 -0.831260 1.639730
endloop
endfacet
facet normal 0.096684 -0.981652 -0.164350
outer loop
vertex 0.165348 -0.831260 1.639730
vertex 0.195090 -0.980785 2.550331
vertex 0.000000 -1.000000 2.550331
endloop
endfacet
facet normal 0.096685 -0.981652 -0.164350
outer loop
vertex 0.165348 -0.831260 1.639730
vertex 0.000000 -1.000000 2.550331
vertex 0.000000 -0.847546 1.639730
endloop
endfacet
facet normal -0.096684 -0.981652 -0.164350
outer loop
vertex 0.000000 -0.847546 1.639730
vertex 0.000000 -1.000000 2.550331
vertex -0.195090 -0.980785 2.550331
endloop
endfacet
facet normal -0.096685 -0.981652 -0.164350
outer loop
vertex 0.000000 -0.847546 1.639730
vertex -0.195090 -0.980785 2.550331
vertex -0.165348 -0.831260 1.639730
endloop
endfacet
facet normal -0.286337 -0.943928 -0.164350
outer loop
vertex -0.165348 -0.831260 1.639730
vertex -0.195090 -0.980785 2.550331
vertex -0.382683 -0.923880 2.550331
endloop
endfacet
facet normal -0.286337 -0.943928 -0.164350
outer loop
vertex -0.165348 -0.831260 1.639730
vertex -0.382683 -0.923880 2.550331
vertex -0.324342 -0.783030 1.639730
endloop
endfacet
facet normal -0.464987 -0.869929 -0.164350
outer loop
vertex -0.324342 -0.783030 1.639730
vertex -0.382683 -0.923880 2.550331
vertex -0.555570 -0.831470 2.550331
endloop
endfacet
facet normal -0.464987 -0.869929 -0.164350
outer loop
vertex -0.324342 -0.783030 1.639730
vertex -0.555570 -0.831470 2.550331
vertex -0.470871 -0.704708 1.639730
endloop
endfacet
facet normal -0.625767 -0.762499 -0.164350
outer loop
vertex -0.470871 -0.704708 1.639730
vertex -0.555570 -0.831470 2.550331
vertex -0.707107 -0.707107 2.550331
endloop
endfacet
facet normal -0.625767 -0.762499 -0.164350
outer loop
vertex -0.470871 -0.704708 1.639730
vertex -0.707107 -0.707107 2.550331
vertex -0.599305 -0.599305 1.639730
endloop
endfacet
facet normal -0.762499 -0.625767 -0.164350
outer loop
vertex -0.599305 -0.599305 1.639730
vertex -0.707107 -0.707107 2.550331
vertex -0.831470 -0.555570 2.550331
endloop
endfacet
facet normal -0.762499 -0.625767 -0.164350
outer loop
vertex -0.599305 -0.599305 1.639730
vertex -0.831470 -0.555570 2.550331
vertex -0.704708 -0.470871 1.639730
endloop
endfacet
facet normal -0.869929 -0.464987 -0.164350
outer loop
vertex -0.704708 -0.470871 1.639730
vertex -0.831470 -0.555570 2.550331
vertex -0.923880 -0.382683 2.550331
endloop
endfacet
facet normal -0.869929 -0.464987 -0.164350
outer loop
vertex -0.704708 -0.470871 1.639730
vertex -0.923880 -0.382683 2.550331
vertex -0.783030 -0.324342 1.639730
endloop
endfacet
facet normal -0.943928 -0.286338 -0.164350
outer loop
vertex -0.783030 -0.324342 1.639730
vertex -0.923880 -0.382683 2.550331
vertex -0.980785 -0.195090 2.550331
endloop
endfacet
facet normal -0.943928 -0.286337 -0.164350
outer loop
vertex -0.783030 -0.324342 1.639730
vertex -0.980785 -0.195090 2.550331
vertex -0.831260 -0.165348 1.639730
endloop
endfacet
facet normal -0.981652 -0.096684 -0.164350
outer loop
vertex -0.831260 -0.165348 1.639730
vertex -0.980785 -0.195090 2.550331
vertex -1.000000 0.000000 2.550331
endloop
endfacet
facet normal -0.981652 -0.096685 -0.164350
outer loop
vertex -0.831260 -0.165348 1.639730
vertex -1.000000 0.000000 2.550331
vertex -0.847546 0.000000 1.639730
endloop
endfacet
facet normal -0.981652 0.096684 -0.164350
outer loop
vertex -0.847546 0.000000 1.639730
vertex -1.000000 0.000000 2.550331
vertex -0.980785 0.195090 2.550331
endloop
endfacet
facet normal -0.981652 0.096685 -0.164350
outer loop
vertex -0.847546 0.000000 1.639730
vertex -0.980785 0.195090 2.550331
vertex -0.831260 0.165348 1.639730
endloop
endfacet
facet normal -0.943928 0.286337 -0.164350
outer loop
vertex -0.831260 0.165348 1.639730
vertex -0.980785 0.195090 2.550331
vertex -0.923880 0.382683 2.550331
endloop
endfacet
facet normal -0.943928 0.286337 -0.164350
outer loop
vertex -0.831260 0.165348 1.639730
vertex -0.923880 0.382683 2.550331
vertex -0.783030 0.324342 1.639730
endloop
endfacet
facet normal -0.869929 0.464987 -0.164350
outer loop
vertex -0.783030 0.324342 1.639730
vertex -0.923880 0.382683 2.550331
vertex -0.831470 0.555570 2.550331
endloop
endfacet
facet normal -0.869929 0.464986 -0.164350
outer loop
vertex -0.783030 0.324342 1.639730
vertex -0.831470 0.555570 2.550331
vertex -0.704708 0.470871 1.639730
endloop
endfacet
facet normal -0.762499 0.625767 -0.164350
outer loop
vertex -0.704708 0.470871 1.639730
vertex -0.831470 0.555570 2.550331
vertex -0.707107 0.707107 2.550331
endloop
endfacet
facet normal -0.762499 0.625767 -0.164350
outer loop
vertex -0.704708 0.470871 1.639730
vertex -0.707107 0.707107 2.550331
vertex -0.599305 0.599305 1.639730
endloop
endfacet
facet normal -0.625767 0.762499 -0.164350
outer loop
vertex -0.599305 0.599305 1.639730
vertex -0.707107 0.707107 2.550331
vertex -0.555570 0.831470 2.550331
endloop
endfacet
facet normal -0.625767 0.762499 -0.164350
outer loop
vertex -0.599305 0.599305 1.639730
vertex -0.555570 0.831470 2.550331
vertex -0.470871 0.704708 1.639730
endloop
endfacet
facet normal -0.464987 0.869929 -0.164350
outer loop
vertex -0.470871 0.704708 1.639730
vertex -0.555570 0.831470 2.550331
vertex -0.382683 0.923880 2.550331
endloop
endfacet
facet normal -0.464987 0.869929 -0.164350
outer loop
vertex -0.470871 0.704708 1.639730
vertex -0.382683 0.923880 2.550331
vertex -0.324342 0.783030 1.639730
endloop
endfacet
facet normal 0.000000 0.000000 1.000000
outer loop
vertex 0.382683 0.923880 2.550331
vertex 0.195090 0.980785 2.550331
vertex 0.000000 1.000000 2.550331
endloop
endfacet
facet normal 0.000000 0.000000 1.000000
outer loop
vertex 0.000000 1.000000 2.550331
vertex -0.195090 0.980785 2.550331
vertex -0.382683 0.923880 2.550331
endloop
endfacet
facet normal 0.000000 0.000000 1.000000
outer loop
vertex -0.382683 0.923880 2.550331
vertex -0.555570 0.831470 2.550331
vertex -0.707107 0.707107 2.550331
endloop
endfacet
facet normal 0.000008 0.000000 1.000000
outer loop
vertex -0.707107 0.707107 2.550331
vertex -0.831470 0.555570 2.550331
vertex -0.923880 0.382683 2.550331
endloop
endfacet
facet normal -0.000008 0.000000 1.000000
outer loop
vertex -0.923880 0.382683 2.550331
vertex -0.980785 0.195090 2.550331
vertex -1.000000 0.000000 2.550331
endloop
endfacet
facet normal -0.000008 0.000000 1.000000
outer loop
vertex -1.000000 0.000000 2.550331
vertex -0.980785 -0.195090 2.550331
vertex -0.923880 -0.382683 2.550331
endloop
endfacet
facet normal 0.000008 0.000000 1.000000
outer loop
vertex -0.923880 -0.382683 2.550331
vertex -0.831470 -0.555570 2.550331
vertex -0.707107 -0.707107 2.550331
endloop
endfacet
facet normal 0.000000 0.000000 1.000000
outer loop
vertex -0.707107 -0.707107 2.550331
vertex -0.555570 -0.831470 2.550331
vertex -0.382683 -0.923880 2.550331
endloop
endfacet
facet normal 0.000000 0.000000 1.000000
outer loop
vertex -0.382683 -0.923880 2.550331
vertex -0.195090 -0.980785 2.550331
vertex 0.000000 -1.000000 2.550331
endloop
endfacet
facet normal 0.000000 0.000000 1.000000
outer loop
vertex 0.000000 -1.000000 2.550331
vertex 0.195090 -0.980785 2.550331
vertex 0.382683 -0.923880 2.550331
endloop
endfacet
facet normal 0.000000 0.000000 1.000000
outer loop
vertex 0.382683 -0.923880 2.550331
vertex 0.555570 -0.831470 2.550331
vertex 0.707107 -0.707107 2.550331
endloop
endfacet
facet normal -0.000008 0.000000 1.000000
outer loop
vertex 0.707107 -0.707107 2.550331
vertex 0.831470 -0.555570 2.550331
vertex 0.923880 -0.382683 2.550331
endloop
endfacet
facet normal 0.000008 0.000000 1.000000
outer loop
vertex 0.923880 -0.382683 2.550331
vertex 0.980785 -0.195090 2.550331
vertex 1.000000 0.000000 2.550331
endloop
endfacet
facet normal 0.000008 0.000000 1.000000
outer loop
vertex 1.000000 0.000000 2.550331
vertex 0.980785 0.195090 2.550331
vertex 0.923880 0.382683 2.550331
endloop
endfacet
facet normal -0.000008 0.000000 1.000000
outer loop
vertex 0.923880 0.382683 2.550331
vertex 0.831470 0.555570 2.550331
vertex 0.707107 0.707107 2.550331
endloop
endfacet
facet normal 0.000000 0.000000 1.000000
outer loop
vertex 0.707107 0.707107 2.550331
vertex 0.555570 0.831470 2.550331
vertex 0.382683 0.923880 2.550331
endloop
endfacet
facet normal 0.000000 0.000000 1.000000
outer loop
vertex 0.382683 0.923880 2.550331
vertex 0.000000 1.000000 2.550331
vertex -0.382683 0.923880 2.550331
endloop
endfacet
facet normal 0.000000 0.000000 1.000000
outer loop
vertex -0.382683 0.923880 2.550331
vertex -0.707107 0.707107 2.550331
vertex -0.923880 0.382683 2.550331
endloop
endfacet
facet normal 0.000000 0.000000 1.000000
outer loop
vertex -0.923880 0.382683 2.550331
vertex -1.000000 0.000000 2.550331
vertex -0.923880 -0.382683 2.550331
endloop
endfacet
facet normal 0.000000 0.000000 1.000000
outer loop
vertex -0.923880 -0.382683 2.550331
vertex -0.707107 -0.707107 2.550331
vertex -0.382683 -0.923880 2.550331
endloop
endfacet
facet normal 0.000000 0.000000 1.000000
outer loop
vertex -0.382683 -0.923880 2.550331
vertex 0.000000 -1.000000 2.550331
vertex 0.382683 -0.923880 2.550331
endloop
endfacet
facet normal 0.000000 0.000000 1.000000
outer loop
vertex 0.382683 -0.923880 2.550331
vertex 0.707107 -0.707107 2.550331
vertex 0.923880 -0.382683 2.550331
endloop
endfacet
facet normal 0.000000 0.000000 1.000000
outer loop
vertex 0.923880 -0.382683 2.550331
vertex 1.000000 0.000000 2.550331
vertex 0.923880 0.382683 2.550331
endloop
endfacet
facet normal 0.000000 0.000000 1.000000
outer loop
vertex 0.923880 0.382683 2.550331
vertex 0.707107 0.707107 2.550331
vertex 0.382683 0.923880 2.550331
endloop
endfacet
facet normal 0.000000 0.000000 1.000000
outer loop
vertex 0.382683 0.923880 2.550331
vertex -0.382683 0.923880 2.550331
vertex -0.923880 0.382683 2.550331
endloop
endfacet
facet normal 0.000001 0.000000 1.000000
outer loop
vertex -0.923880 0.382683 2.550331
vertex -0.923880 -0.382683 2.550331
vertex -0.382683 -0.923880 2.550331
endloop
endfacet
facet normal 0.000000 0.000000 1.000000
outer loop
vertex -0.382683 -0.923880 2.550331
vertex 0.382683 -0.923880 2.550331
vertex 0.923880 -0.382683 2.550331
endloop
endfacet
facet normal -0.000001 0.000000 1.000000
outer loop
vertex 0.923880 -0.382683 2.550331
vertex 0.923880 0.382683 2.550331
vertex 0.382683 0.923880 2.550331
endloop
endfacet
facet normal 0.000000 0.000000 1.000000
outer loop
vertex 0.382683 0.923880 2.550331
vertex -0.923880 0.382683 2.550331
vertex -0.382683 -0.923880 2.550331
endloop
endfacet
facet normal 0.000000 0.000000 1.000000
outer loop
vertex -0.382683 -0.923880 2.550331
vertex 0.923880 -0.382683 2.550331
vertex 0.382683 0.923880 2.550331
endloop
endfacet
facet normal -0.286337 0.943928 -0.164350
outer loop
vertex -0.324342 0.783030 1.639730
vertex -0.382683 0.923880 2.550331
vertex -0.195090 0.980785 2.550331
endloop
endfacet
facet normal -0.286337 0.943928 -0.164350
outer loop
vertex -0.324342 0.783030 1.639730
vertex -0.195090 0.980785 2.550331
vertex -0.165348 0.831260 1.639730
endloop
endfacet
facet normal -0.096684 0.981652 -0.164350
outer loop
vertex -0.165348 0.831260 1.639730
vertex -0.195090 0.980785 2.550331
vertex 0.000000 1.000000 2.550331
endloop
endfacet
facet normal -0.096685 0.981652 -0.164350
outer loop
vertex -0.165348 0.831260 1.639730
vertex 0.000000 1.000000 2.550331
vertex 0.000000 0.847546 1.639730
endloop
endfacet
facet normal 0.000000 0.000000 -1.000000
outer loop
vertex -0.177013 0.889903 -2.537626
vertex 0.000000 0.907337 -2.537626
vertex 0.177013 0.889903 -2.537626
endloop
endfacet
facet normal 0.000000 0.000000 -1.000000
outer loop
vertex 0.177013 0.889903 -2.537626
vertex 0.347223 0.838270 -2.537626
vertex 0.504089 0.754423 -2.537626
endloop
endfacet
facet normal 0.000000 0.000000 -1.000000
outer loop
vertex 0.504089 0.754423 -2.537626
vertex 0.641584 0.641584 -2.537626
vertex 0.754423 0.504089 -2.537626
endloop
endfacet
facet normal 0.000019 0.000000 -1.000000
outer loop
vertex 0.754423 0.504089 -2.537626
vertex 0.838270 0.347223 -2.537626
vertex 0.889903 0.177013 -2.537626
endloop
endfacet
facet normal 0.000000 0.000000 -1.000000
outer loop
vertex 0.889903 0.177013 -2.537626
vertex 0.907337 0.000000 -2.537626
vertex 0.889903 -0.177013 -2.537626
endloop
endfacet
facet normal 0.000019 0.000000 -1.000000
outer loop
vertex 0.889903 -0.177013 -2.537626
vertex 0.838270 -0.347223 -2.537626
vertex 0.754423 -0.504089 -2.537626
endloop
endfacet
facet normal 0.000000 0.000000 -1.000000
outer loop
vertex 0.754423 -0.504089 -2.537626
vertex 0.641584 -0.641584 -2.537626
vertex 0.504089 -0.754423 -2.537626
endloop
endfacet
facet normal 0.000000 0.000000 -1.000000
outer loop
vertex 0.504089 -0.754423 -2.537626
vertex 0.347223 -0.838270 -2.537626
vertex 0.177013 -0.889903 -2.537626
endloop
endfacet
facet normal 0.000000 0.000000 -1.000000
outer loop
vertex 0.177013 -0.889903 -2.537626
vertex 0.000000 -0.907337 -2.537626
vertex -0.177013 -0.889903 -2.537626
endloop
endfacet
facet normal 0.000000 0.000000 -1.000000
outer loop
vertex -0.177013 -0.889903 -2.537626
vertex -0.347223 -0.838270 -2.537626
vertex -0.504089 -0.754423 -2.537626
endloop
endfacet
facet normal 0.000000 0.000000 -1.000000
outer loop
vertex -0.504089 -0.754423 -2.537626
vertex -0.641584 -0.641584 -2.537626
vertex -0.754423 -0.504089 -2.537626
endloop
endfacet
facet normal -0.000019 0.000000 -1.000000
outer loop
vertex -0.754423 -0.504089 -2.537626
vertex -0.838270 -0.347223 -2.537626
vertex -0.889903 -0.177013 -2.537626
endloop
endfacet
facet normal 0.000000 0.000000 -1.000000
outer loop
vertex -0.889903 -0.177013 -2.537626
vertex -0.907337 0.000000 -2.537626
vertex -0.889903 0.177013 -2.537626
endloop
endfacet
facet normal -0.000019 0.000000 -1.000000
outer loop
vertex -0.889903 0.177013 -2.537626
vertex -0.838270 0.347223 -2.537626
vertex -0.754423 0.504089 -2.537626
endloop
endfacet
facet normal 0.000000 0.000000 -1.000000
outer loop
vertex -0.754423 0.504089 -2.537626
vertex -0.641584 0.641584 -2.537626
vertex -0.504089 0.754423 -2.537626
endloop
endfacet
facet normal 0.000000 0.000000 -1.000000
outer loop
vertex -0.504089 0.754423 -2.537626
vertex -0.347223 0.838270 -2.537626
vertex -0.177013 0.889903 -2.537626
endloop
endfacet
facet normal 0.000000 0.000000 -1.000000
outer loop
vertex -0.177013 0.889903 -2.537626
vertex 0.177013 0.889903 -2.537626
vertex 0.504089 0.754423 -2.537626
endloop
endfacet
facet normal -0.000002 0.000000 -1.000000
outer loop
vertex 0.504089 0.754423 -2.537626
vertex 0.754423 0.504089 -2.537626
vertex 0.889903 0.177013 -2.537626
endloop
endfacet
facet normal -0.000002 0.000000 -1.000000
outer loop
vertex 0.889903 0.177013 -2.537626
vertex 0.889903 -0.177013 -2.537626
vertex 0.754423 -0.504089 -2.537626
endloop
endfacet
facet normal 0.000000 0.000000 -1.000000
outer loop
vertex 0.754423 -0.504089 -2.537626
vertex 0.504089 -0.754423 -2.537626
vertex 0.177013 -0.889903 -2.537626
endloop
endfacet
facet normal 0.000000 0.000000 -1.000000
outer loop
vertex 0.177013 -0.889903 -2.537626
vertex -0.177013 -0.889903 -2.537626
vertex -0.504089 -0.754423 -2.537626
endloop
endfacet
facet normal 0.000002 0.000000 -1.000000
outer loop
vertex -0.504089 -0.754423 -2.537626
vertex -0.754423 -0.504089 -2.537626
vertex -0.889903 -0.177013 -2.537626
endloop
endfacet
facet normal 0.000002 0.000000 -1.000000
outer loop
vertex -0.889903 -0.177013 -2.537626
vertex -0.889903 0.177013 -2.537626
vertex -0.754423 0.504089 -2.537626
endloop
endfacet
facet normal 0.000000 0.000000 -1.000000
outer loop
vertex -0.754423 0.504089 -2.537626
vertex -0.504089 0.754423 -2.537626
vertex -0.177013 0.889903 -2.537626
endloop
endfacet
facet normal 0.000000 0.000000 -1.000000
outer loop
vertex -0.177013 0.889903 -2.537626
vertex 0.504089 0.754423 -2.537626
vertex 0.889903 0.177013 -2.537626
endloop
endfacet
facet normal 0.000001 0.000000 -1.000000
outer loop
vertex 0.889903 0.177013 -2.537626
vertex 0.754423 -0.504089 -2.537626
vertex 0.177013 -0.889903 -2.537626
endloop
endfacet
facet normal 0.000000 0.000000 -1.000000
outer loop
vertex 0.177013 -0.889903 -2.537626
vertex -0.504089 -0.754423 -2.537626
vertex -0.889903 -0.177013 -2.537626
endloop
endfacet
facet normal -0.000001 0.000000 -1.000000
outer loop
vertex -0.889903 -0.177013 -2.537626
vertex -0.754423 0.504089 -2.537626
vertex -0.177013 0.889903 -2.537626
endloop
endfacet
facet normal -0.000000 0.000000 -1.000000
outer loop
vertex -0.177013 0.889903 -2.537626
vertex 0.889903 0.177013 -2.537626
vertex 0.177013 -0.889903 -2.537626
endloop
endfacet
facet normal 0.000000 0.000000 -1.000000
outer loop
vertex 0.177013 -0.889903 -2.537626
vertex -0.889903 -0.177013 -2.537626
vertex -0.177013 0.889903 -2.537626
endloop
endfacet
facet normal -0.097949 0.994493 0.037285
outer loop
vertex -0.182267 0.916320 -1.710364
vertex -0.176066 0.885145 -0.862574
vertex 0.000000 0.902486 -0.862574
endloop
endfacet
facet normal -0.097949 0.994493 0.037285
outer loop
vertex -0.182267 0.916320 -1.710364
vertex 0.000000 0.902486 -0.862574
vertex -0.000000 0.934271 -1.710364
endloop
endfacet
facet normal -0.095238 0.966966 0.236446
outer loop
vertex -0.223013 1.121163 -0.040286
vertex -0.181334 0.911629 0.833411
vertex 0.000000 0.929489 0.833411
endloop
endfacet
facet normal -0.095238 0.966966 0.236446
outer loop
vertex -0.223013 1.121163 -0.040286
vertex 0.000000 0.929489 0.833411
vertex -0.000000 1.143128 -0.040286
endloop
endfacet
facet normal -0.290083 0.956275 0.037285
outer loop
vertex -0.357530 0.863154 -1.710364
vertex -0.345367 0.833789 -0.862574
vertex -0.176066 0.885145 -0.862574
endloop
endfacet
facet normal -0.290083 0.956275 0.037285
outer loop
vertex -0.357530 0.863154 -1.710364
vertex -0.176066 0.885145 -0.862574
vertex -0.182267 0.916320 -1.710364
endloop
endfacet
facet normal -0.604069 0.738622 0.299228
outer loop
vertex -0.437456 1.056113 -0.040286
vertex -0.340103 0.781783 0.833411
vertex -0.181334 0.911629 0.833411
endloop
endfacet
facet normal -0.282054 0.929806 0.236446
outer loop
vertex -0.437456 1.056113 -0.040286
vertex -0.181334 0.911629 0.833411
vertex -0.223013 1.121163 -0.040286
endloop
endfacet
facet normal -0.471069 0.881308 0.037285
outer loop
vertex -0.519053 0.776818 -1.710364
vertex -0.501395 0.750390 -0.862574
vertex -0.345367 0.833789 -0.862574
endloop
endfacet
facet normal -0.471069 0.881308 0.037285
outer loop
vertex -0.519053 0.776818 -1.710364
vertex -0.345367 0.833789 -0.862574
vertex -0.357530 0.863154 -1.710364
endloop
endfacet
facet normal -0.447727 0.837637 0.312897
outer loop
vertex -0.635088 0.950476 -0.040286
vertex -0.489609 0.701869 0.833411
vertex -0.340103 0.781783 0.833411
endloop
endfacet
facet normal -0.447727 0.837637 0.312897
outer loop
vertex -0.635088 0.950476 -0.040286
vertex -0.340103 0.781783 0.833411
vertex -0.437456 1.056113 -0.040286
endloop
endfacet
facet normal -0.633952 0.772473 0.037285
outer loop
vertex -0.660630 0.660630 -1.710364
vertex -0.638154 0.638154 -0.862574
vertex -0.501395 0.750390 -0.862574
endloop
endfacet
facet normal -0.633952 0.772473 0.037285
outer loop
vertex -0.660630 0.660630 -1.710364
vertex -0.501395 0.750390 -0.862574
vertex -0.519053 0.776818 -1.710364
endloop
endfacet
facet normal -0.603225 0.735032 0.309593
outer loop
vertex -0.808314 0.808314 -0.040286
vertex -0.620653 0.594325 0.833411
vertex -0.489609 0.701869 0.833411
endloop
endfacet
facet normal -0.603225 0.735032 0.309593
outer loop
vertex -0.808314 0.808314 -0.040286
vertex -0.489609 0.701869 0.833411
vertex -0.635088 0.950476 -0.040286
endloop
endfacet
facet normal -0.772474 0.633952 0.037285
outer loop
vertex -0.776818 0.519053 -1.710364
vertex -0.750390 0.501395 -0.862574
vertex -0.638154 0.638154 -0.862574
endloop
endfacet
facet normal -0.772473 0.633952 0.037285
outer loop
vertex -0.776818 0.519053 -1.710364
vertex -0.638154 0.638154 -0.862574
vertex -0.660630 0.660630 -1.710364
endloop
endfacet
facet normal -0.735931 0.603964 0.305995
outer loop
vertex -0.950476 0.635088 -0.040286
vertex -0.728198 0.463281 0.833411
vertex -0.620653 0.594325 0.833411
endloop
endfacet
facet normal -0.735932 0.603963 0.305995
outer loop
vertex -0.950476 0.635088 -0.040286
vertex -0.620653 0.594325 0.833411
vertex -0.808314 0.808314 -0.040286
endloop
endfacet
facet normal -0.881308 0.471069 0.037285
outer loop
vertex -0.863154 0.357530 -1.710364
vertex -0.833789 0.345367 -0.862574
vertex -0.750390 0.501395 -0.862574
endloop
endfacet
facet normal -0.881308 0.471070 0.037285
outer loop
vertex -0.863154 0.357530 -1.710364
vertex -0.750390 0.501395 -0.862574
vertex -0.776818 0.519053 -1.710364
endloop
endfacet
facet normal -0.840676 0.449350 0.302240
outer loop
vertex -1.056113 0.437456 -0.040286
vertex -0.808111 0.313774 0.833411
vertex -0.728198 0.463281 0.833411
endloop
endfacet
facet normal -0.840676 0.449350 0.302240
outer loop
vertex -1.056113 0.437456 -0.040286
vertex -0.728198 0.463281 0.833411
vertex -0.950476 0.635088 -0.040286
endloop
endfacet
facet normal -0.956275 0.290083 0.037285
outer loop
vertex -0.916320 0.182267 -1.710364
vertex -0.885145 0.176066 -0.862574
vertex -0.833789 0.345367 -0.862574
endloop
endfacet
facet normal -0.956275 0.290083 0.037285
outer loop
vertex -0.916320 0.182267 -1.710364
vertex -0.833789 0.345367 -0.862574
vertex -0.863154 0.357530 -1.710364
endloop
endfacet
facet normal -0.913322 0.277054 0.298470
outer loop
vertex -1.121163 0.223013 -0.040286
vertex -0.857321 0.151550 0.833411
vertex -0.808111 0.313774 0.833411
endloop
endfacet
facet normal -0.913322 0.277053 0.298470
outer loop
vertex -1.121163 0.223013 -0.040286
vertex -0.808111 0.313774 0.833411
vertex -1.056113 0.437456 -0.040286
endloop
endfacet
facet normal -0.994493 0.097949 0.037285
outer loop
vertex -0.934271 0.000000 -1.710364
vertex -0.902486 0.000000 -0.862574
vertex -0.885145 0.176066 -0.862574
endloop
endfacet
facet normal -0.994493 0.097949 0.037285
outer loop
vertex -0.934271 0.000000 -1.710364
vertex -0.885145 0.176066 -0.862574
vertex -0.916320 0.182267 -1.710364
endloop
endfacet
facet normal -0.950948 0.093659 0.294832
outer loop
vertex -1.143128 -0.000000 -0.040286
vertex -0.873937 -0.017157 0.833411
vertex -0.857321 0.151550 0.833411
endloop
endfacet
facet normal -0.950948 0.093661 0.294832
outer loop
vertex -1.143128 -0.000000 -0.040286
vertex -0.857321 0.151550 0.833411
vertex -1.121163 0.223013 -0.040286
endloop
endfacet
facet normal -0.994493 -0.097949 0.037285
outer loop
vertex -0.916320 -0.182267 -1.710364
vertex -0.885145 -0.176066 -0.862574
vertex -0.902486 0.000000 -0.862574
endloop
endfacet
facet normal -0.994493 -0.097949 0.037285
outer loop
vertex -0.916320 -0.182267 -1.710364
vertex -0.902486 0.000000 -0.862574
vertex -0.934271 0.000000 -1.710364
endloop
endfacet
facet normal -0.951975 -0.093761 0.291468
outer loop
vertex -1.121163 -0.223013 -0.040286
vertex -0.857321 -0.185865 0.833411
vertex -0.873937 -0.017157 0.833411
endloop
endfacet
facet normal -0.951975 -0.093761 0.291468
outer loop
vertex -1.121163 -0.223013 -0.040286
vertex -0.873937 -0.017157 0.833411
vertex -1.143128 -0.000000 -0.040286
endloop
endfacet
facet normal -0.956275 -0.290082 0.037285
outer loop
vertex -0.863154 -0.357530 -1.710364
vertex -0.833789 -0.345367 -0.862574
vertex -0.885145 -0.176066 -0.862574
endloop
endfacet
facet normal -0.956275 -0.290083 0.037285
outer loop
vertex -0.863154 -0.357530 -1.710364
vertex -0.885145 -0.176066 -0.862574
vertex -0.916320 -0.182267 -1.710364
endloop
endfacet
facet normal -0.916248 -0.277941 0.288510
outer loop
vertex -1.056113 -0.437456 -0.040286
vertex -0.808111 -0.348089 0.833411
vertex -0.857321 -0.185865 0.833411
endloop
endfacet
facet normal -0.916248 -0.277941 0.288510
outer loop
vertex -1.056113 -0.437456 -0.040286
vertex -0.857321 -0.185865 0.833411
vertex -1.121163 -0.223013 -0.040286
endloop
endfacet
facet normal -0.881308 -0.471070 0.037285
outer loop
vertex -0.776818 -0.519053 -1.710364
vertex -0.750390 -0.501395 -0.862574
vertex -0.833789 -0.345367 -0.862574
endloop
endfacet
facet normal -0.881308 -0.471069 0.037285
outer loop
vertex -0.776818 -0.519053 -1.710364
vertex -0.833789 -0.345367 -0.862574
vertex -0.863154 -0.357530 -1.710364
endloop
endfacet
facet normal -0.845063 -0.451695 0.286076
outer loop
vertex -0.950476 -0.635088 -0.040286
vertex -0.728198 -0.497596 0.833411
vertex -0.808111 -0.348089 0.833411
endloop
endfacet
facet normal -0.845063 -0.451695 0.286076
outer loop
vertex -0.950476 -0.635088 -0.040286
vertex -0.808111 -0.348089 0.833411
vertex -1.056113 -0.437456 -0.040286
endloop
endfacet
facet normal -0.772473 -0.633952 0.037285
outer loop
vertex -0.660630 -0.660630 -1.710364
vertex -0.638154 -0.638154 -0.862574
vertex -0.750390 -0.501395 -0.862574
endloop
endfacet
facet normal -0.772473 -0.633952 0.037285
outer loop
vertex -0.660630 -0.660630 -1.710364
vertex -0.750390 -0.501395 -0.862574
vertex -0.776818 -0.519053 -1.710364
endloop
endfacet
facet normal -0.741121 -0.608222 0.284264
outer loop
vertex -0.808314 -0.808314 -0.040286
vertex -0.620653 -0.628640 0.833411
vertex -0.728198 -0.497596 0.833411
endloop
endfacet
facet normal -0.741121 -0.608222 0.284264
outer loop
vertex -0.808314 -0.808314 -0.040286
vertex -0.728198 -0.497596 0.833411
vertex -0.950476 -0.635088 -0.040286
endloop
endfacet
facet normal -0.633952 -0.772473 0.037285
outer loop
vertex -0.519053 -0.776818 -1.710364
vertex -0.501395 -0.750390 -0.862574
vertex -0.638154 -0.638154 -0.862574
endloop
endfacet
facet normal -0.633952 -0.772473 0.037285
outer loop
vertex -0.519053 -0.776818 -1.710364
vertex -0.638154 -0.638154 -0.862574
vertex -0.660630 -0.660630 -1.710364
endloop
endfacet
facet normal -0.608432 -0.741376 0.283147
outer loop
vertex -0.635088 -0.950476 -0.040286
vertex -0.489609 -0.736185 0.833411
vertex -0.620653 -0.628640 0.833411
endloop
endfacet
facet normal -0.608432 -0.741376 0.283147
outer loop
vertex -0.635088 -0.950476 -0.040286
vertex -0.620653 -0.628640 0.833411
vertex -0.808314 -0.808314 -0.040286
endloop
endfacet
facet normal -0.471069 -0.881308 0.037285
outer loop
vertex -0.357530 -0.863154 -1.710364
vertex -0.345367 -0.833789 -0.862574
vertex -0.501395 -0.750390 -0.862574
endloop
endfacet
facet normal -0.471069 -0.881308 0.037285
outer loop
vertex -0.357530 -0.863154 -1.710364
vertex -0.501395 -0.750390 -0.862574
vertex -0.519053 -0.776818 -1.710364
endloop
endfacet
facet normal -0.452158 -0.845928 0.282770
outer loop
vertex -0.437456 -1.056113 -0.040286
vertex -0.340103 -0.816097 0.833411
vertex -0.489609 -0.736185 0.833411
endloop
endfacet
facet normal -0.452158 -0.845928 0.282770
outer loop
vertex -0.437456 -1.056113 -0.040286
vertex -0.489609 -0.736185 0.833411
vertex -0.635088 -0.950476 -0.040286
endloop
endfacet
facet normal -0.290083 -0.956275 0.037285
outer loop
vertex -0.182267 -0.916320 -1.710364
vertex -0.176066 -0.885145 -0.862574
vertex -0.345367 -0.833789 -0.862574
endloop
endfacet
facet normal -0.290083 -0.956275 0.037285
outer loop
vertex -0.182267 -0.916320 -1.710364
vertex -0.345367 -0.833789 -0.862574
vertex -0.357530 -0.863154 -1.710364
endloop
endfacet
facet normal -0.278405 -0.917779 0.283147
outer loop
vertex -0.223013 -1.121163 -0.040286
vertex -0.177878 -0.865308 0.833411
vertex -0.340103 -0.816097 0.833411
endloop
endfacet
facet normal -0.278405 -0.917779 0.283147
outer loop
vertex -0.223013 -1.121163 -0.040286
vertex -0.340103 -0.816097 0.833411
vertex -0.437456 -1.056113 -0.040286
endloop
endfacet
facet normal -0.097949 -0.994493 0.037285
outer loop
vertex -0.000000 -0.934271 -1.710364
vertex 0.000000 -0.902486 -0.862574
vertex -0.176066 -0.885145 -0.862574
endloop
endfacet
facet normal -0.097949 -0.994493 0.037285
outer loop
vertex -0.000000 -0.934271 -1.710364
vertex -0.176066 -0.885145 -0.862574
vertex -0.182267 -0.916320 -1.710364
endloop
endfacet
facet normal -0.093974 -0.954129 0.284264
outer loop
vertex -0.000000 -1.143128 -0.040286
vertex -0.009171 -0.881924 0.833411
vertex -0.177878 -0.865308 0.833411
endloop
endfacet
facet normal -0.093974 -0.954129 0.284264
outer loop
vertex -0.000000 -1.143128 -0.040286
vertex -0.177878 -0.865308 0.833411
vertex -0.223013 -1.121163 -0.040286
endloop
endfacet
facet normal 0.097949 -0.994493 0.037285
outer loop
vertex 0.182267 -0.916320 -1.710364
vertex 0.176066 -0.885145 -0.862574
vertex 0.000000 -0.902486 -0.862574
endloop
endfacet
facet normal 0.097949 -0.994493 0.037285
outer loop
vertex 0.182267 -0.916320 -1.710364
vertex 0.000000 -0.902486 -0.862574
vertex -0.000000 -0.934271 -1.710364
endloop
endfacet
facet normal 0.093921 -0.953593 0.286077
outer loop
vertex 0.223013 -1.121163 -0.040286
vertex 0.159537 -0.865308 0.833411
vertex -0.009171 -0.881924 0.833411
endloop
endfacet
facet normal 0.093921 -0.953593 0.286076
outer loop
vertex 0.223013 -1.121163 -0.040286
vertex -0.009171 -0.881924 0.833411
vertex -0.000000 -1.143128 -0.040286
endloop
endfacet
facet normal 0.290083 -0.956275 0.037285
outer loop
vertex 0.357530 -0.863154 -1.710364
vertex 0.345367 -0.833789 -0.862574
vertex 0.176066 -0.885145 -0.862574
endloop
endfacet
facet normal 0.290083 -0.956275 0.037285
outer loop
vertex 0.357530 -0.863154 -1.710364
vertex 0.176066 -0.885145 -0.862574
vertex 0.182267 -0.916320 -1.710364
endloop
endfacet
facet normal 0.277941 -0.916248 0.288510
outer loop
vertex 0.437456 -1.056113 -0.040286
vertex 0.321761 -0.816097 0.833411
vertex 0.159537 -0.865308 0.833411
endloop
endfacet
facet normal 0.277941 -0.916248 0.288510
outer loop
vertex 0.437456 -1.056113 -0.040286
vertex 0.159537 -0.865308 0.833411
vertex 0.223013 -1.121163 -0.040286
endloop
endfacet
facet normal 0.471069 -0.881308 0.037285
outer loop
vertex 0.519053 -0.776818 -1.710364
vertex 0.501395 -0.750390 -0.862574
vertex 0.345367 -0.833789 -0.862574
endloop
endfacet
facet normal 0.471069 -0.881308 0.037285
outer loop
vertex 0.519053 -0.776818 -1.710364
vertex 0.345367 -0.833789 -0.862574
vertex 0.357530 -0.863154 -1.710364
endloop
endfacet
facet normal 0.450929 -0.843629 0.291467
outer loop
vertex 0.635088 -0.950476 -0.040286
vertex 0.471268 -0.736185 0.833411
vertex 0.321761 -0.816097 0.833411
endloop
endfacet
facet normal 0.450929 -0.843629 0.291468
outer loop
vertex 0.635088 -0.950476 -0.040286
vertex 0.321761 -0.816097 0.833411
vertex 0.437456 -1.056113 -0.040286
endloop
endfacet
facet normal 0.633952 -0.772473 0.037285
outer loop
vertex 0.660630 -0.660630 -1.710364
vertex 0.638154 -0.638154 -0.862574
vertex 0.501395 -0.750390 -0.862574
endloop
endfacet
facet normal 0.633952 -0.772473 0.037285
outer loop
vertex 0.660630 -0.660630 -1.710364
vertex 0.501395 -0.750390 -0.862574
vertex 0.519053 -0.776818 -1.710364
endloop
endfacet
facet normal 0.606194 -0.738649 0.294832
outer loop
vertex 0.808314 -0.808314 -0.040286
vertex 0.602311 -0.628640 0.833411
vertex 0.471268 -0.736185 0.833411
endloop
endfacet
facet normal 0.606194 -0.738650 0.294831
outer loop
vertex 0.808314 -0.808314 -0.040286
vertex 0.471268 -0.736185 0.833411
vertex 0.635088 -0.950476 -0.040286
endloop
endfacet
facet normal 0.772474 -0.633952 0.037285
outer loop
vertex 0.776818 -0.519053 -1.710364
vertex 0.750390 -0.501395 -0.862574
vertex 0.638154 -0.638154 -0.862574
endloop
endfacet
facet normal 0.772473 -0.633952 0.037285
outer loop
vertex 0.776818 -0.519053 -1.710364
vertex 0.638154 -0.638154 -0.862574
vertex 0.660630 -0.660630 -1.710364
endloop
endfacet
facet normal 0.737776 -0.605477 0.298470
outer loop
vertex 0.950476 -0.635088 -0.040286
vertex 0.709856 -0.497596 0.833411
vertex 0.602311 -0.628640 0.833411
endloop
endfacet
facet normal 0.737776 -0.605477 0.298470
outer loop
vertex 0.950476 -0.635088 -0.040286
vertex 0.602311 -0.628640 0.833411
vertex 0.808314 -0.808314 -0.040286
endloop
endfacet
facet normal 0.881308 -0.471069 0.037285
outer loop
vertex 0.863154 -0.357530 -1.710364
vertex 0.833789 -0.345367 -0.862574
vertex 0.750390 -0.501395 -0.862574
endloop
endfacet
facet normal 0.881308 -0.471070 0.037285
outer loop
vertex 0.863154 -0.357530 -1.710364
vertex 0.750390 -0.501395 -0.862574
vertex 0.776818 -0.519053 -1.710364
endloop
endfacet
facet normal 0.840676 -0.449350 0.302240
outer loop
vertex 1.056113 -0.437456 -0.040286
vertex 0.789769 -0.348089 0.833411
vertex 0.709856 -0.497596 0.833411
endloop
endfacet
facet normal 0.840676 -0.449351 0.302239
outer loop
vertex 1.056113 -0.437456 -0.040286
vertex 0.709856 -0.497596 0.833411
vertex 0.950476 -0.635088 -0.040286
endloop
endfacet
facet normal 0.956275 -0.290082 0.037285
outer loop
vertex 0.916319 -0.182267 -1.710364
vertex 0.885145 -0.176066 -0.862574
vertex 0.833789 -0.345367 -0.862574
endloop
endfacet
facet normal 0.956275 -0.290083 0.037285
outer loop
vertex 0.916319 -0.182267 -1.710364
vertex 0.833789 -0.345367 -0.862574
vertex 0.863154 -0.357530 -1.710364
endloop
endfacet
facet normal 0.911039 -0.276360 0.305995
outer loop
vertex 1.121163 -0.223013 -0.040286
vertex 0.838979 -0.185865 0.833411
vertex 0.789769 -0.348089 0.833411
endloop
endfacet
facet normal 0.911039 -0.276361 0.305995
outer loop
vertex 1.121163 -0.223013 -0.040286
vertex 0.789769 -0.348089 0.833411
vertex 1.056113 -0.437456 -0.040286
endloop
endfacet
facet normal 0.994493 -0.097949 0.037285
outer loop
vertex 0.934271 0.000000 -1.710364
vertex 0.902486 0.000000 -0.862574
vertex 0.885145 -0.176066 -0.862574
endloop
endfacet
facet normal 0.994493 -0.097949 0.037285
outer loop
vertex 0.934271 0.000000 -1.710364
vertex 0.885145 -0.176066 -0.862574
vertex 0.916319 -0.182267 -1.710364
endloop
endfacet
facet normal 0.946290 -0.093202 0.309593
outer loop
vertex 1.143128 -0.000000 -0.040286
vertex 0.855596 -0.017157 0.833411
vertex 0.838979 -0.185865 0.833411
endloop
endfacet
facet normal 0.946290 -0.093201 0.309593
outer loop
vertex 1.143128 -0.000000 -0.040286
vertex 0.838979 -0.185865 0.833411
vertex 1.121163 -0.223013 -0.040286
endloop
endfacet
facet normal 0.994493 0.097949 0.037285
outer loop
vertex 0.916319 0.182267 -1.710364
vertex 0.885145 0.176066 -0.862574
vertex 0.902486 0.000000 -0.862574
endloop
endfacet
facet normal 0.994493 0.097949 0.037285
outer loop
vertex 0.916319 0.182267 -1.710364
vertex 0.902486 0.000000 -0.862574
vertex 0.934271 0.000000 -1.710364
endloop
endfacet
facet normal 0.945213 0.093096 0.312897
outer loop
vertex 1.121163 0.223013 -0.040286
vertex 0.838979 0.151550 0.833411
vertex 0.855596 -0.017157 0.833411
endloop
endfacet
facet normal 0.945214 0.093095 0.312897
outer loop
vertex 1.121163 0.223013 -0.040286
vertex 0.855596 -0.017157 0.833411
vertex 1.143128 -0.000000 -0.040286
endloop
endfacet
facet normal 0.956275 0.290082 0.037285
outer loop
vertex 0.863154 0.357530 -1.710364
vertex 0.833789 0.345367 -0.862574
vertex 0.885145 0.176066 -0.862574
endloop
endfacet
facet normal 0.956275 0.290083 0.037285
outer loop
vertex 0.863154 0.357530 -1.710364
vertex 0.885145 0.176066 -0.862574
vertex 0.916319 0.182267 -1.710364
endloop
endfacet
facet normal 0.972944 -0.094154 0.210988
outer loop
vertex 1.056113 0.437456 -0.040286
vertex 0.858735 0.355700 0.833411
vertex 0.838979 0.151550 0.833411
endloop
endfacet
facet normal 0.907975 0.275431 0.315784
outer loop
vertex 1.056113 0.437456 -0.040286
vertex 0.838979 0.151550 0.833411
vertex 1.121163 0.223013 -0.040286
endloop
endfacet
facet normal 0.881307 0.471070 0.037285
outer loop
vertex 0.776818 0.519053 -1.710364
vertex 0.750390 0.501395 -0.862574
vertex 0.833789 0.345367 -0.862574
endloop
endfacet
facet normal 0.881308 0.471069 0.037285
outer loop
vertex 0.776818 0.519053 -1.710364
vertex 0.833789 0.345367 -0.862574
vertex 0.863154 0.357530 -1.710364
endloop
endfacet
facet normal 0.856914 0.458030 0.236446
outer loop
vertex 0.950476 0.635088 -0.040286
vertex 0.772841 0.516396 0.833411
vertex 0.858735 0.355700 0.833411
endloop
endfacet
facet normal 0.856914 0.458030 0.236446
outer loop
vertex 0.950476 0.635088 -0.040286
vertex 0.858735 0.355700 0.833411
vertex 1.056113 0.437456 -0.040286
endloop
endfacet
facet normal 0.772473 0.633952 0.037285
outer loop
vertex 0.660630 0.660630 -1.710364
vertex 0.638154 0.638154 -0.862574
vertex 0.750390 0.501395 -0.862574
endloop
endfacet
facet normal 0.772473 0.633952 0.037285
outer loop
vertex 0.660630 0.660630 -1.710364
vertex 0.750390 0.501395 -0.862574
vertex 0.776818 0.519053 -1.710364
endloop
endfacet
facet normal 0.751092 0.616404 0.236446
outer loop
vertex 0.808314 0.808314 -0.040286
vertex 0.657248 0.657248 0.833411
vertex 0.772841 0.516396 0.833411
endloop
endfacet
facet normal 0.751092 0.616404 0.236446
outer loop
vertex 0.808314 0.808314 -0.040286
vertex 0.772841 0.516396 0.833411
vertex 0.950476 0.635088 -0.040286
endloop
endfacet
facet normal 0.633952 0.772473 0.037285
outer loop
vertex 0.519053 0.776818 -1.710364
vertex 0.501395 0.750390 -0.862574
vertex 0.638154 0.638154 -0.862574
endloop
endfacet
facet normal 0.633952 0.772473 0.037285
outer loop
vertex 0.519053 0.776818 -1.710364
vertex 0.638154 0.638154 -0.862574
vertex 0.660630 0.660630 -1.710364
endloop
endfacet
facet normal 0.616405 0.751092 0.236446
outer loop
vertex 0.635088 0.950476 -0.040286
vertex 0.516396 0.772841 0.833411
vertex 0.657248 0.657248 0.833411
endloop
endfacet
facet normal 0.616405 0.751092 0.236446
outer loop
vertex 0.635088 0.950476 -0.040286
vertex 0.657248 0.657248 0.833411
vertex 0.808314 0.808314 -0.040286
endloop
endfacet
facet normal 0.471069 0.881308 0.037285
outer loop
vertex 0.357530 0.863154 -1.710364
vertex 0.345367 0.833789 -0.862574
vertex 0.501395 0.750390 -0.862574
endloop
endfacet
facet normal 0.471069 0.881308 0.037285
outer loop
vertex 0.357530 0.863154 -1.710364
vertex 0.501395 0.750390 -0.862574
vertex 0.519053 0.776818 -1.710364
endloop
endfacet
facet normal 0.458030 0.856914 0.236447
outer loop
vertex 0.437456 1.056113 -0.040286
vertex 0.355700 0.858735 0.833411
vertex 0.516396 0.772841 0.833411
endloop
endfacet
facet normal 0.458030 0.856914 0.236446
outer loop
vertex 0.437456 1.056113 -0.040286
vertex 0.516396 0.772841 0.833411
vertex 0.635088 0.950476 -0.040286
endloop
endfacet
facet normal 0.290083 0.956275 0.037285
outer loop
vertex 0.182267 0.916320 -1.710364
vertex 0.176066 0.885145 -0.862574
vertex 0.345367 0.833789 -0.862574
endloop
endfacet
facet normal 0.290083 0.956275 0.037285
outer loop
vertex 0.182267 0.916320 -1.710364
vertex 0.345367 0.833789 -0.862574
vertex 0.357530 0.863154 -1.710364
endloop
endfacet
facet normal 0.282054 0.929806 0.236446
outer loop
vertex 0.223013 1.121163 -0.040286
vertex 0.181334 0.911629 0.833411
vertex 0.355700 0.858735 0.833411
endloop
endfacet
facet normal 0.282054 0.929806 0.236446
outer loop
vertex 0.223013 1.121163 -0.040286
vertex 0.355700 0.858735 0.833411
vertex 0.437456 1.056113 -0.040286
endloop
endfacet
facet normal 0.097949 0.994493 0.037285
outer loop
vertex -0.000000 0.934271 -1.710364
vertex 0.000000 0.902486 -0.862574
vertex 0.176066 0.885145 -0.862574
endloop
endfacet
facet normal 0.097949 0.994493 0.037285
outer loop
vertex -0.000000 0.934271 -1.710364
vertex 0.176066 0.885145 -0.862574
vertex 0.182267 0.916320 -1.710364
endloop
endfacet
facet normal 0.095238 0.966966 0.236446
outer loop
vertex -0.000000 1.143128 -0.040286
vertex 0.000000 0.929489 0.833411
vertex 0.181334 0.911629 0.833411
endloop
endfacet
facet normal 0.095238 0.966966 0.236446
outer loop
vertex -0.000000 1.143128 -0.040286
vertex 0.181334 0.911629 0.833411
vertex 0.223013 1.121163 -0.040286
endloop
endfacet
facet normal -0.097520 0.990134 0.100623
outer loop
vertex -0.181334 0.911629 0.833411
vertex -0.165348 0.831260 1.639730
vertex 0.000000 0.847546 1.639730
endloop
endfacet
facet normal -0.097520 0.990134 0.100623
outer loop
vertex -0.181334 0.911629 0.833411
vertex 0.000000 0.847546 1.639730
vertex 0.000000 0.929489 0.833411
endloop
endfacet
facet normal -0.290282 0.956932 0.004194
outer loop
vertex -0.340103 0.781783 0.833411
vertex -0.324342 0.783030 1.639730
vertex -0.165348 0.831260 1.639730
endloop
endfacet
facet normal -0.630544 0.770994 0.089349
outer loop
vertex -0.340103 0.781783 0.833411
vertex -0.165348 0.831260 1.639730
vertex -0.181334 0.911629 0.833411
endloop
endfacet
facet normal -0.471382 0.881894 0.007849
outer loop
vertex -0.489609 0.701869 0.833411
vertex -0.470871 0.704708 1.639730
vertex -0.324342 0.783030 1.639730
endloop
endfacet
facet normal -0.471383 0.881894 0.007850
outer loop
vertex -0.489609 0.701869 0.833411
vertex -0.324342 0.783030 1.639730
vertex -0.340103 0.781783 0.833411
endloop
endfacet
facet normal -0.634348 0.772954 0.012020
outer loop
vertex -0.620653 0.594325 0.833411
vertex -0.599305 0.599305 1.639730
vertex -0.470871 0.704708 1.639730
endloop
endfacet
facet normal -0.634347 0.772955 0.012020
outer loop
vertex -0.620653 0.594325 0.833411
vertex -0.470871 0.704708 1.639730
vertex -0.489609 0.701869 0.833411
endloop
endfacet
facet normal -0.772904 0.634307 0.016545
outer loop
vertex -0.728198 0.463281 0.833411
vertex -0.704708 0.470871 1.639730
vertex -0.599305 0.599305 1.639730
endloop
endfacet
facet normal -0.772905 0.634306 0.016545
outer loop
vertex -0.728198 0.463281 0.833411
vertex -0.599305 0.599305 1.639730
vertex -0.620653 0.594325 0.833411
endloop
endfacet
facet normal -0.881722 0.471291 0.021250
outer loop
vertex -0.808111 0.313774 0.833411
vertex -0.783030 0.324342 1.639730
vertex -0.704708 0.470871 1.639730
endloop
endfacet
facet normal -0.881722 0.471290 0.021250
outer loop
vertex -0.808111 0.313774 0.833411
vertex -0.704708 0.470871 1.639730
vertex -0.728198 0.463281 0.833411
endloop
endfacet
facet normal -0.956618 0.290187 0.025953
outer loop
vertex -0.857321 0.151550 0.833411
vertex -0.831260 0.165348 1.639730
vertex -0.783030 0.324342 1.639730
endloop
endfacet
facet normal -0.956618 0.290187 0.025953
outer loop
vertex -0.857321 0.151550 0.833411
vertex -0.783030 0.324342 1.639730
vertex -0.808111 0.313774 0.833411
endloop
endfacet
facet normal -0.994722 0.097972 0.030474
outer loop
vertex -0.873937 -0.017157 0.833411
vertex -0.847546 0.000000 1.639730
vertex -0.831260 0.165348 1.639730
endloop
endfacet
facet normal -0.994723 0.097970 0.030474
outer loop
vertex -0.873937 -0.017157 0.833411
vertex -0.831260 0.165348 1.639730
vertex -0.857321 0.151550 0.833411
endloop
endfacet
facet normal -0.994587 -0.097958 0.034638
outer loop
vertex -0.857321 -0.185865 0.833411
vertex -0.831260 -0.165348 1.639730
vertex -0.847546 0.000000 1.639730
endloop
endfacet
facet normal -0.994588 -0.097958 0.034638
outer loop
vertex -0.857321 -0.185865 0.833411
vertex -0.847546 0.000000 1.639730
vertex -0.873937 -0.017157 0.833411
endloop
endfacet
facet normal -0.956239 -0.290071 0.038287
outer loop
vertex -0.808111 -0.348089 0.833411
vertex -0.783030 -0.324342 1.639730
vertex -0.831260 -0.165348 1.639730
endloop
endfacet
facet normal -0.956238 -0.290073 0.038287
outer loop
vertex -0.808111 -0.348089 0.833411
vertex -0.831260 -0.165348 1.639730
vertex -0.857321 -0.185865 0.833411
endloop
endfacet
facet normal -0.881169 -0.470995 0.041281
outer loop
vertex -0.728198 -0.497596 0.833411
vertex -0.704708 -0.470871 1.639730
vertex -0.783030 -0.324342 1.639730
endloop
endfacet
facet normal -0.881169 -0.470995 0.041281
outer loop
vertex -0.728198 -0.497596 0.833411
vertex -0.783030 -0.324342 1.639730
vertex -0.808111 -0.348089 0.833411
endloop
endfacet
facet normal -0.772278 -0.633793 0.043504
outer loop
vertex -0.620653 -0.628640 0.833411
vertex -0.599305 -0.599305 1.639730
vertex -0.704708 -0.470871 1.639730
endloop
endfacet
facet normal -0.772278 -0.633793 0.043504
outer loop
vertex -0.620653 -0.628640 0.833411
vertex -0.704708 -0.470871 1.639730
vertex -0.728198 -0.497596 0.833411
endloop
endfacet
facet normal -0.633755 -0.772232 0.044873
outer loop
vertex -0.489609 -0.736185 0.833411
vertex -0.470871 -0.704708 1.639730
vertex -0.599305 -0.599305 1.639730
endloop
endfacet
facet normal -0.633754 -0.772232 0.044873
outer loop
vertex -0.489609 -0.736185 0.833411
vertex -0.599305 -0.599305 1.639730
vertex -0.620653 -0.628640 0.833411
endloop
endfacet
facet normal -0.470912 -0.881014 0.045336
outer loop
vertex -0.340103 -0.816097 0.833411
vertex -0.324342 -0.783030 1.639730
vertex -0.470871 -0.704708 1.639730
endloop
endfacet
facet normal -0.470912 -0.881015 0.045336
outer loop
vertex -0.340103 -0.816097 0.833411
vertex -0.470871 -0.704708 1.639730
vertex -0.489609 -0.736185 0.833411
endloop
endfacet
facet normal -0.289992 -0.955977 0.044873
outer loop
vertex -0.177878 -0.865308 0.833411
vertex -0.165348 -0.831260 1.639730
vertex -0.324342 -0.783030 1.639730
endloop
endfacet
facet normal -0.289992 -0.955976 0.044873
outer loop
vertex -0.177878 -0.865308 0.833411
vertex -0.324342 -0.783030 1.639730
vertex -0.340103 -0.816097 0.833411
endloop
endfacet
facet normal -0.097925 -0.994242 0.043505
outer loop
vertex -0.009171 -0.881924 0.833411
vertex 0.000000 -0.847546 1.639730
vertex -0.165348 -0.831260 1.639730
endloop
endfacet
facet normal -0.097925 -0.994242 0.043504
outer loop
vertex -0.009171 -0.881924 0.833411
vertex -0.165348 -0.831260 1.639730
vertex -0.177878 -0.865308 0.833411
endloop
endfacet
facet normal 0.097934 -0.994336 0.041281
outer loop
vertex 0.159537 -0.865308 0.833411
vertex 0.165348 -0.831260 1.639730
vertex 0.000000 -0.847546 1.639730
endloop
endfacet
facet normal 0.097934 -0.994336 0.041281
outer loop
vertex 0.159537 -0.865308 0.833411
vertex 0.000000 -0.847546 1.639730
vertex -0.009171 -0.881924 0.833411
endloop
endfacet
facet normal 0.290072 -0.956239 0.038287
outer loop
vertex 0.321761 -0.816097 0.833411
vertex 0.324342 -0.783030 1.639730
vertex 0.165348 -0.831260 1.639730
endloop
endfacet
facet normal 0.290072 -0.956239 0.038288
outer loop
vertex 0.321761 -0.816097 0.833411
vertex 0.165348 -0.831260 1.639730
vertex 0.159537 -0.865308 0.833411
endloop
endfacet
facet normal 0.471114 -0.881392 0.034638
outer loop
vertex 0.471268 -0.736185 0.833411
vertex 0.470871 -0.704708 1.639730
vertex 0.324342 -0.783030 1.639730
endloop
endfacet
facet normal 0.471114 -0.881392 0.034638
outer loop
vertex 0.471268 -0.736185 0.833411
vertex 0.324342 -0.783030 1.639730
vertex 0.321761 -0.816097 0.833411
endloop
endfacet
facet normal 0.634098 -0.772651 0.030474
outer loop
vertex 0.602311 -0.628640 0.833411
vertex 0.599305 -0.599305 1.639730
vertex 0.470871 -0.704708 1.639730
endloop
endfacet
facet normal 0.634099 -0.772651 0.030474
outer loop
vertex 0.602311 -0.628640 0.833411
vertex 0.470871 -0.704708 1.639730
vertex 0.471268 -0.736185 0.833411
endloop
endfacet
facet normal 0.772750 -0.634180 0.025953
outer loop
vertex 0.709856 -0.497596 0.833411
vertex 0.704708 -0.470871 1.639730
vertex 0.599305 -0.599305 1.639730
endloop
endfacet
facet normal 0.772751 -0.634179 0.025953
outer loop
vertex 0.709856 -0.497596 0.833411
vertex 0.599305 -0.599305 1.639730
vertex 0.602311 -0.628640 0.833411
endloop
endfacet
facet normal 0.881722 -0.471290 0.021250
outer loop
vertex 0.789769 -0.348089 0.833411
vertex 0.783030 -0.324342 1.639730
vertex 0.704708 -0.470871 1.639730
endloop
endfacet
facet normal 0.881722 -0.471290 0.021250
outer loop
vertex 0.789769 -0.348089 0.833411
vertex 0.704708 -0.470871 1.639730
vertex 0.709856 -0.497596 0.833411
endloop
endfacet
facet normal 0.956809 -0.290245 0.016545
outer loop
vertex 0.838979 -0.185865 0.833411
vertex 0.831260 -0.165348 1.639730
vertex 0.783030 -0.324342 1.639730
endloop
endfacet
facet normal 0.956809 -0.290245 0.016545
outer loop
vertex 0.838979 -0.185865 0.833411
vertex 0.783030 -0.324342 1.639730
vertex 0.789769 -0.348089 0.833411
endloop
endfacet
facet normal 0.995113 -0.098011 0.012020
outer loop
vertex 0.855596 -0.017157 0.833411
vertex 0.847546 0.000000 1.639730
vertex 0.831260 -0.165348 1.639730
endloop
endfacet
facet normal 0.995113 -0.098010 0.012020
outer loop
vertex 0.855596 -0.017157 0.833411
vertex 0.831260 -0.165348 1.639730
vertex 0.838979 -0.185865 0.833411
endloop
endfacet
facet normal 0.995154 0.098015 0.007850
outer loop
vertex 0.838979 0.151550 0.833411
vertex 0.831260 0.165348 1.639730
vertex 0.847546 0.000000 1.639730
endloop
endfacet
facet normal 0.995154 0.098015 0.007850
outer loop
vertex 0.838979 0.151550 0.833411
vertex 0.847546 0.000000 1.639730
vertex 0.855596 -0.017157 0.833411
endloop
endfacet
facet normal 0.952083 0.288811 0.100623
outer loop
vertex 0.858735 0.355700 0.833411
vertex 0.783030 0.324342 1.639730
vertex 0.831260 0.165348 1.639730
endloop
endfacet
facet normal 0.995288 -0.096316 0.011176
outer loop
vertex 0.858735 0.355700 0.833411
vertex 0.831260 0.165348 1.639730
vertex 0.838979 0.151550 0.833411
endloop
endfacet
facet normal 0.877446 0.469003 0.100623
outer loop
vertex 0.772841 0.516396 0.833411
vertex 0.704708 0.470871 1.639730
vertex 0.783030 0.324342 1.639730
endloop
endfacet
facet normal 0.877445 0.469005 0.100623
outer loop
vertex 0.772841 0.516396 0.833411
vertex 0.783030 0.324342 1.639730
vertex 0.858735 0.355700 0.833411
endloop
endfacet
facet normal 0.769087 0.631174 0.100623
outer loop
vertex 0.657248 0.657248 0.833411
vertex 0.599305 0.599305 1.639730
vertex 0.704708 0.470871 1.639730
endloop
endfacet
facet normal 0.769087 0.631173 0.100623
outer loop
vertex 0.657248 0.657248 0.833411
vertex 0.704708 0.470871 1.639730
vertex 0.772841 0.516396 0.833411
endloop
endfacet
facet normal 0.631174 0.769087 0.100623
outer loop
vertex 0.516396 0.772841 0.833411
vertex 0.470871 0.704708 1.639730
vertex 0.599305 0.599305 1.639730
endloop
endfacet
facet normal 0.631173 0.769087 0.100623
outer loop
vertex 0.516396 0.772841 0.833411
vertex 0.599305 0.599305 1.639730
vertex 0.657248 0.657248 0.833411
endloop
endfacet
facet normal 0.469004 0.877445 0.100623
outer loop
vertex 0.355700 0.858735 0.833411
vertex 0.324342 0.783030 1.639730
vertex 0.470871 0.704708 1.639730
endloop
endfacet
facet normal 0.469004 0.877445 0.100623
outer loop
vertex 0.355700 0.858735 0.833411
vertex 0.470871 0.704708 1.639730
vertex 0.516396 0.772841 0.833411
endloop
endfacet
facet normal 0.288811 0.952084 0.100623
outer loop
vertex 0.181334 0.911629 0.833411
vertex 0.165348 0.831260 1.639730
vertex 0.324342 0.783030 1.639730
endloop
endfacet
facet normal 0.288812 0.952083 0.100623
outer loop
vertex 0.181334 0.911629 0.833411
vertex 0.324342 0.783030 1.639730
vertex 0.355700 0.858735 0.833411
endloop
endfacet
facet normal 0.097520 0.990134 0.100623
outer loop
vertex 0.000000 0.929489 0.833411
vertex 0.000000 0.847546 1.639730
vertex 0.165348 0.831260 1.639730
endloop
endfacet
facet normal 0.097520 0.990134 0.100623
outer loop
vertex 0.000000 0.929489 0.833411
vertex 0.165348 0.831260 1.639730
vertex 0.181334 0.911629 0.833411
endloop
endfacet
facet normal 0.094107 0.955487 -0.279622
outer loop
vertex 0.000000 0.902486 -0.862574
vertex -0.000000 1.143128 -0.040286
vertex 0.223013 1.121163 -0.040286
endloop
endfacet
facet normal 0.094107 0.955487 -0.279622
outer loop
vertex 0.000000 0.902486 -0.862574
vertex 0.223013 1.121163 -0.040286
vertex 0.176066 0.885145 -0.862574
endloop
endfacet
facet normal 0.278705 0.918768 -0.279622
outer loop
vertex 0.176066 0.885145 -0.862574
vertex 0.223013 1.121163 -0.040286
vertex 0.437456 1.056113 -0.040286
endloop
endfacet
facet normal 0.278705 0.918768 -0.279622
outer loop
vertex 0.176066 0.885145 -0.862574
vertex 0.437456 1.056113 -0.040286
vertex 0.345367 0.833789 -0.862574
endloop
endfacet
facet normal 0.452593 0.846741 -0.279622
outer loop
vertex 0.345367 0.833789 -0.862574
vertex 0.437456 1.056113 -0.040286
vertex 0.635088 0.950476 -0.040286
endloop
endfacet
facet normal 0.452593 0.846742 -0.279622
outer loop
vertex 0.345367 0.833789 -0.862574
vertex 0.635088 0.950476 -0.040286
vertex 0.501395 0.750390 -0.862574
endloop
endfacet
facet normal 0.609087 0.742175 -0.279622
outer loop
vertex 0.501395 0.750390 -0.862574
vertex 0.635088 0.950476 -0.040286
vertex 0.808314 0.808314 -0.040286
endloop
endfacet
facet normal 0.609087 0.742175 -0.279622
outer loop
vertex 0.501395 0.750390 -0.862574
vertex 0.808314 0.808314 -0.040286
vertex 0.638154 0.638154 -0.862574
endloop
endfacet
facet normal 0.742175 0.609087 -0.279622
outer loop
vertex 0.638154 0.638154 -0.862574
vertex 0.808314 0.808314 -0.040286
vertex 0.950476 0.635088 -0.040286
endloop
endfacet
facet normal 0.742175 0.609087 -0.279622
outer loop
vertex 0.638154 0.638154 -0.862574
vertex 0.950476 0.635088 -0.040286
vertex 0.750390 0.501395 -0.862574
endloop
endfacet
facet normal 0.846741 0.452593 -0.279622
outer loop
vertex 0.750390 0.501395 -0.862574
vertex 0.950476 0.635088 -0.040286
vertex 1.056113 0.437456 -0.040286
endloop
endfacet
facet normal 0.846741 0.452593 -0.279622
outer loop
vertex 0.750390 0.501395 -0.862574
vertex 1.056113 0.437456 -0.040286
vertex 0.833789 0.345367 -0.862574
endloop
endfacet
facet normal 0.918768 0.278705 -0.279622
outer loop
vertex 0.833789 0.345367 -0.862574
vertex 1.056113 0.437456 -0.040286
vertex 1.121163 0.223013 -0.040286
endloop
endfacet
facet normal 0.918768 0.278704 -0.279622
outer loop
vertex 0.833789 0.345367 -0.862574
vertex 1.121163 0.223013 -0.040286
vertex 0.885145 0.176066 -0.862574
endloop
endfacet
facet normal 0.955487 0.094107 -0.279622
outer loop
vertex 0.885145 0.176066 -0.862574
vertex 1.121163 0.223013 -0.040286
vertex 1.143128 -0.000000 -0.040286
endloop
endfacet
facet normal 0.955487 0.094108 -0.279622
outer loop
vertex 0.885145 0.176066 -0.862574
vertex 1.143128 -0.000000 -0.040286
vertex 0.902486 0.000000 -0.862574
endloop
endfacet
facet normal 0.955487 -0.094107 -0.279622
outer loop
vertex 0.902486 0.000000 -0.862574
vertex 1.143128 -0.000000 -0.040286
vertex 1.121163 -0.223013 -0.040286
endloop
endfacet
facet normal 0.955487 -0.094108 -0.279622
outer loop
vertex 0.902486 0.000000 -0.862574
vertex 1.121163 -0.223013 -0.040286
vertex 0.885145 -0.176066 -0.862574
endloop
endfacet
facet normal 0.918768 -0.278705 -0.279622
outer loop
vertex 0.885145 -0.176066 -0.862574
vertex 1.121163 -0.223013 -0.040286
vertex 1.056113 -0.437456 -0.040286
endloop
endfacet
facet normal 0.918768 -0.278705 -0.279622
outer loop
vertex 0.885145 -0.176066 -0.862574
vertex 1.056113 -0.437456 -0.040286
vertex 0.833789 -0.345367 -0.862574
endloop
endfacet
facet normal 0.846741 -0.452593 -0.279622
outer loop
vertex 0.833789 -0.345367 -0.862574
vertex 1.056113 -0.437456 -0.040286
vertex 0.950476 -0.635088 -0.040286
endloop
endfacet
facet normal 0.846741 -0.452593 -0.279622
outer loop
vertex 0.833789 -0.345367 -0.862574
vertex 0.950476 -0.635088 -0.040286
vertex 0.750390 -0.501395 -0.862574
endloop
endfacet
facet normal 0.742176 -0.609087 -0.279622
outer loop
vertex 0.750390 -0.501395 -0.862574
vertex 0.950476 -0.635088 -0.040286
vertex 0.808314 -0.808314 -0.040286
endloop
endfacet
facet normal 0.742175 -0.609088 -0.279622
outer loop
vertex 0.750390 -0.501395 -0.862574
vertex 0.808314 -0.808314 -0.040286
vertex 0.638154 -0.638154 -0.862574
endloop
endfacet
facet normal 0.609087 -0.742175 -0.279622
outer loop
vertex 0.638154 -0.638154 -0.862574
vertex 0.808314 -0.808314 -0.040286
vertex 0.635088 -0.950476 -0.040286
endloop
endfacet
facet normal 0.609087 -0.742175 -0.279622
outer loop
vertex 0.638154 -0.638154 -0.862574
vertex 0.635088 -0.950476 -0.040286
vertex 0.501395 -0.750390 -0.862574
endloop
endfacet
facet normal 0.452593 -0.846741 -0.279622
outer loop
vertex 0.501395 -0.750390 -0.862574
vertex 0.635088 -0.950476 -0.040286
vertex 0.437456 -1.056113 -0.040286
endloop
endfacet
facet normal 0.452593 -0.846742 -0.279622
outer loop
vertex 0.501395 -0.750390 -0.862574
vertex 0.437456 -1.056113 -0.040286
vertex 0.345367 -0.833789 -0.862574
endloop
endfacet
facet normal 0.278705 -0.918768 -0.279622
outer loop
vertex 0.345367 -0.833789 -0.862574
vertex 0.437456 -1.056113 -0.040286
vertex 0.223013 -1.121163 -0.040286
endloop
endfacet
facet normal 0.278705 -0.918768 -0.279622
outer loop
vertex 0.345367 -0.833789 -0.862574
vertex 0.223013 -1.121163 -0.040286
vertex 0.176066 -0.885145 -0.862574
endloop
endfacet
facet normal 0.094107 -0.955487 -0.279622
outer loop
vertex 0.176066 -0.885145 -0.862574
vertex 0.223013 -1.121163 -0.040286
vertex -0.000000 -1.143128 -0.040286
endloop
endfacet
facet normal 0.094107 -0.955487 -0.279622
outer loop
vertex 0.176066 -0.885145 -0.862574
vertex -0.000000 -1.143128 -0.040286
vertex 0.000000 -0.902486 -0.862574
endloop
endfacet
facet normal -0.094107 -0.955487 -0.279622
outer loop
vertex 0.000000 -0.902486 -0.862574
vertex -0.000000 -1.143128 -0.040286
vertex -0.223013 -1.121163 -0.040286
endloop
endfacet
facet normal -0.094107 -0.955487 -0.279622
outer loop
vertex 0.000000 -0.902486 -0.862574
vertex -0.223013 -1.121163 -0.040286
vertex -0.176066 -0.885145 -0.862574
endloop
endfacet
facet normal -0.278705 -0.918768 -0.279622
outer loop
vertex -0.176066 -0.885145 -0.862574
vertex -0.223013 -1.121163 -0.040286
vertex -0.437456 -1.056113 -0.040286
endloop
endfacet
facet normal -0.278705 -0.918768 -0.279622
outer loop
vertex -0.176066 -0.885145 -0.862574
vertex -0.437456 -1.056113 -0.040286
vertex -0.345367 -0.833789 -0.862574
endloop
endfacet
facet normal -0.452593 -0.846741 -0.279622
outer loop
vertex -0.345367 -0.833789 -0.862574
vertex -0.437456 -1.056113 -0.040286
vertex -0.635088 -0.950476 -0.040286
endloop
endfacet
facet normal -0.452593 -0.846742 -0.279622
outer loop
vertex -0.345367 -0.833789 -0.862574
vertex -0.635088 -0.950476 -0.040286
vertex -0.501395 -0.750390 -0.862574
endloop
endfacet
facet normal -0.609087 -0.742175 -0.279622
outer loop
vertex -0.501395 -0.750390 -0.862574
vertex -0.635088 -0.950476 -0.040286
vertex -0.808314 -0.808314 -0.040286
endloop
endfacet
facet normal -0.609087 -0.742175 -0.279622
outer loop
vertex -0.501395 -0.750390 -0.862574
vertex -0.808314 -0.808314 -0.040286
vertex -0.638154 -0.638154 -0.862574
endloop
endfacet
facet normal -0.742175 -0.609087 -0.279622
outer loop
vertex -0.638154 -0.638154 -0.862574
vertex -0.808314 -0.808314 -0.040286
vertex -0.950476 -0.635088 -0.040286
endloop
endfacet
facet normal -0.742175 -0.609087 -0.279622
outer loop
vertex -0.638154 -0.638154 -0.862574
vertex -0.950476 -0.635088 -0.040286
vertex -0.750390 -0.501395 -0.862574
endloop
endfacet
facet normal -0.846741 -0.452593 -0.279622
outer loop
vertex -0.750390 -0.501395 -0.862574
vertex -0.950476 -0.635088 -0.040286
vertex -1.056113 -0.437456 -0.040286
endloop
endfacet
facet normal -0.846741 -0.452593 -0.279622
outer loop
vertex -0.750390 -0.501395 -0.862574
vertex -1.056113 -0.437456 -0.040286
vertex -0.833789 -0.345367 -0.862574
endloop
endfacet
facet normal -0.918768 -0.278705 -0.279622
outer loop
vertex -0.833789 -0.345367 -0.862574
vertex -1.056113 -0.437456 -0.040286
vertex -1.121163 -0.223013 -0.040286
endloop
endfacet
facet normal -0.918768 -0.278705 -0.279622
outer loop
vertex -0.833789 -0.345367 -0.862574
vertex -1.121163 -0.223013 -0.040286
vertex -0.885145 -0.176066 -0.862574
endloop
endfacet
facet normal -0.955487 -0.094107 -0.279622
outer loop
vertex -0.885145 -0.176066 -0.862574
vertex -1.121163 -0.223013 -0.040286
vertex -1.143128 -0.000000 -0.040286
endloop
endfacet
facet normal -0.955487 -0.094108 -0.279622
outer loop
vertex -0.885145 -0.176066 -0.862574
vertex -1.143128 -0.000000 -0.040286
vertex -0.902486 0.000000 -0.862574
endloop
endfacet
facet normal -0.955487 0.094107 -0.279622
outer loop
vertex -0.902486 0.000000 -0.862574
vertex -1.143128 -0.000000 -0.040286
vertex -1.121163 0.223013 -0.040286
endloop
endfacet
facet normal -0.955487 0.094108 -0.279622
outer loop
vertex -0.902486 0.000000 -0.862574
vertex -1.121163 0.223013 -0.040286
vertex -0.885145 0.176066 -0.862574
endloop
endfacet
facet normal -0.918768 0.278705 -0.279622
outer loop
vertex -0.885145 0.176066 -0.862574
vertex -1.121163 0.223013 -0.040286
vertex -1.056113 0.437456 -0.040286
endloop
endfacet
facet normal -0.918768 0.278704 -0.279622
outer loop
vertex -0.885145 0.176066 -0.862574
vertex -1.056113 0.437456 -0.040286
vertex -0.833789 0.345367 -0.862574
endloop
endfacet
facet normal -0.846741 0.452593 -0.279622
outer loop
vertex -0.833789 0.345367 -0.862574
vertex -1.056113 0.437456 -0.040286
vertex -0.950476 0.635088 -0.040286
endloop
endfacet
facet normal -0.846741 0.452593 -0.279622
outer loop
vertex -0.833789 0.345367 -0.862574
vertex -0.950476 0.635088 -0.040286
vertex -0.750390 0.501395 -0.862574
endloop
endfacet
facet normal -0.742176 0.609087 -0.279622
outer loop
vertex -0.750390 0.501395 -0.862574
vertex -0.950476 0.635088 -0.040286
vertex -0.808314 0.808314 -0.040286
endloop
endfacet
facet normal -0.742175 0.609088 -0.279622
outer loop
vertex -0.750390 0.501395 -0.862574
vertex -0.808314 0.808314 -0.040286
vertex -0.638154 0.638154 -0.862574
endloop
endfacet
facet normal -0.609087 0.742175 -0.279622
outer loop
vertex -0.638154 0.638154 -0.862574
vertex -0.808314 0.808314 -0.040286
vertex -0.635088 0.950476 -0.040286
endloop
endfacet
facet normal -0.609087 0.742175 -0.279622
outer loop
vertex -0.638154 0.638154 -0.862574
vertex -0.635088 0.950476 -0.040286
vertex -0.501395 0.750390 -0.862574
endloop
endfacet
facet normal -0.452593 0.846741 -0.279622
outer loop
vertex -0.501395 0.750390 -0.862574
vertex -0.635088 0.950476 -0.040286
vertex -0.437456 1.056113 -0.040286
endloop
endfacet
facet normal -0.452593 0.846742 -0.279622
outer loop
vertex -0.501395 0.750390 -0.862574
vertex -0.437456 1.056113 -0.040286
vertex -0.345367 0.833789 -0.862574
endloop
endfacet
facet normal -0.278705 0.918768 -0.279622
outer loop
vertex -0.345367 0.833789 -0.862574
vertex -0.437456 1.056113 -0.040286
vertex -0.223013 1.121163 -0.040286
endloop
endfacet
facet normal -0.278705 0.918768 -0.279622
outer loop
vertex -0.345367 0.833789 -0.862574
vertex -0.223013 1.121163 -0.040286
vertex -0.176066 0.885145 -0.862574
endloop
endfacet
facet normal -0.094107 0.955487 -0.279622
outer loop
vertex -0.176066 0.885145 -0.862574
vertex -0.223013 1.121163 -0.040286
vertex -0.000000 1.143128 -0.040286
endloop
endfacet
facet normal -0.094108 0.955487 -0.279622
outer loop
vertex -0.176066 0.885145 -0.862574
vertex -0.000000 1.143128 -0.040286
vertex 0.000000 0.902486 -0.862574
endloop
endfacet
facet normal 0.097966 0.994663 -0.032385
outer loop
vertex 0.000000 0.907337 -2.537626
vertex -0.000000 0.934271 -1.710364
vertex 0.182267 0.916320 -1.710364
endloop
endfacet
facet normal 0.097966 0.994663 -0.032385
outer loop
vertex 0.000000 0.907337 -2.537626
vertex 0.182267 0.916320 -1.710364
vertex 0.177013 0.889903 -2.537626
endloop
endfacet
facet normal 0.290133 0.956438 -0.032385
outer loop
vertex 0.177013 0.889903 -2.537626
vertex 0.182267 0.916320 -1.710364
vertex 0.357530 0.863154 -1.710364
endloop
endfacet
facet normal 0.290132 0.956438 -0.032385
outer loop
vertex 0.177013 0.889903 -2.537626
vertex 0.357530 0.863154 -1.710364
vertex 0.347223 0.838270 -2.537626
endloop
endfacet
facet normal 0.471150 0.881459 -0.032385
outer loop
vertex 0.347223 0.838270 -2.537626
vertex 0.357530 0.863154 -1.710364
vertex 0.519053 0.776818 -1.710364
endloop
endfacet
facet normal 0.471150 0.881458 -0.032385
outer loop
vertex 0.347223 0.838270 -2.537626
vertex 0.519053 0.776818 -1.710364
vertex 0.504089 0.754423 -2.537626
endloop
endfacet
facet normal 0.634060 0.772605 -0.032385
outer loop
vertex 0.504089 0.754423 -2.537626
vertex 0.519053 0.776818 -1.710364
vertex 0.660630 0.660630 -1.710364
endloop
endfacet
facet normal 0.634060 0.772606 -0.032385
outer loop
vertex 0.504089 0.754423 -2.537626
vertex 0.660630 0.660630 -1.710364
vertex 0.641584 0.641584 -2.537626
endloop
endfacet
facet normal 0.772606 0.634060 -0.032385
outer loop
vertex 0.641584 0.641584 -2.537626
vertex 0.660630 0.660630 -1.710364
vertex 0.776818 0.519053 -1.710364
endloop
endfacet
facet normal 0.772605 0.634061 -0.032385
outer loop
vertex 0.641584 0.641584 -2.537626
vertex 0.776818 0.519053 -1.710364
vertex 0.754423 0.504089 -2.537626
endloop
endfacet
facet normal 0.881458 0.471150 -0.032385
outer loop
vertex 0.754423 0.504089 -2.537626
vertex 0.776818 0.519053 -1.710364
vertex 0.863154 0.357530 -1.710364
endloop
endfacet
facet normal 0.881459 0.471149 -0.032385
outer loop
vertex 0.754423 0.504089 -2.537626
vertex 0.863154 0.357530 -1.710364
vertex 0.838270 0.347223 -2.537626
endloop
endfacet
facet normal 0.956438 0.290132 -0.032385
outer loop
vertex 0.838270 0.347223 -2.537626
vertex 0.863154 0.357530 -1.710364
vertex 0.916319 0.182267 -1.710364
endloop
endfacet
facet normal 0.956438 0.290133 -0.032385
outer loop
vertex 0.838270 0.347223 -2.537626
vertex 0.916319 0.182267 -1.710364
vertex 0.889903 0.177013 -2.537626
endloop
endfacet
facet normal 0.994663 0.097965 -0.032385
outer loop
vertex 0.889903 0.177013 -2.537626
vertex 0.916319 0.182267 -1.710364
vertex 0.934271 0.000000 -1.710364
endloop
endfacet
facet normal 0.994663 0.097966 -0.032385
outer loop
vertex 0.889903 0.177013 -2.537626
vertex 0.934271 0.000000 -1.710364
vertex 0.907337 0.000000 -2.537626
endloop
endfacet
facet normal 0.994663 -0.097966 -0.032385
outer loop
vertex 0.907337 0.000000 -2.537626
vertex 0.934271 0.000000 -1.710364
vertex 0.916319 -0.182267 -1.710364
endloop
endfacet
facet normal 0.994663 -0.097966 -0.032385
outer loop
vertex 0.907337 0.000000 -2.537626
vertex 0.916319 -0.182267 -1.710364
vertex 0.889903 -0.177013 -2.537626
endloop
endfacet
facet normal 0.956438 -0.290132 -0.032385
outer loop
vertex 0.889903 -0.177013 -2.537626
vertex 0.916319 -0.182267 -1.710364
vertex 0.863154 -0.357530 -1.710364
endloop
endfacet
facet normal 0.956438 -0.290133 -0.032385
outer loop
vertex 0.889903 -0.177013 -2.537626
vertex 0.863154 -0.357530 -1.710364
vertex 0.838270 -0.347223 -2.537626
endloop
endfacet
facet normal 0.881459 -0.471150 -0.032385
outer loop
vertex 0.838270 -0.347223 -2.537626
vertex 0.863154 -0.357530 -1.710364
vertex 0.776818 -0.519053 -1.710364
endloop
endfacet
facet normal 0.881459 -0.471149 -0.032385
outer loop
vertex 0.838270 -0.347223 -2.537626
vertex 0.776818 -0.519053 -1.710364
vertex 0.754423 -0.504089 -2.537626
endloop
endfacet
facet normal 0.772605 -0.634060 -0.032385
outer loop
vertex 0.754423 -0.504089 -2.537626
vertex 0.776818 -0.519053 -1.710364
vertex 0.660630 -0.660630 -1.710364
endloop
endfacet
facet normal 0.772606 -0.634060 -0.032385
outer loop
vertex 0.754423 -0.504089 -2.537626
vertex 0.660630 -0.660630 -1.710364
vertex 0.641584 -0.641584 -2.537626
endloop
endfacet
facet normal 0.634060 -0.772605 -0.032385
outer loop
vertex 0.641584 -0.641584 -2.537626
vertex 0.660630 -0.660630 -1.710364
vertex 0.519053 -0.776818 -1.710364
endloop
endfacet
facet normal 0.634060 -0.772606 -0.032385
outer loop
vertex 0.641584 -0.641584 -2.537626
vertex 0.519053 -0.776818 -1.710364
vertex 0.504089 -0.754423 -2.537626
endloop
endfacet
facet normal 0.471150 -0.881458 -0.032385
outer loop
vertex 0.504089 -0.754423 -2.537626
vertex 0.519053 -0.776818 -1.710364
vertex 0.357530 -0.863154 -1.710364
endloop
endfacet
facet normal 0.471150 -0.881459 -0.032385
outer loop
vertex 0.504089 -0.754423 -2.537626
vertex 0.357530 -0.863154 -1.710364
vertex 0.347223 -0.838270 -2.537626
endloop
endfacet
facet normal 0.290133 -0.956438 -0.032385
outer loop
vertex 0.347223 -0.838270 -2.537626
vertex 0.357530 -0.863154 -1.710364
vertex 0.182267 -0.916320 -1.710364
endloop
endfacet
facet normal 0.290132 -0.956438 -0.032385
outer loop
vertex 0.347223 -0.838270 -2.537626
vertex 0.182267 -0.916320 -1.710364
vertex 0.177013 -0.889903 -2.537626
endloop
endfacet
facet normal 0.097966 -0.994663 -0.032385
outer loop
vertex 0.177013 -0.889903 -2.537626
vertex 0.182267 -0.916320 -1.710364
vertex -0.000000 -0.934271 -1.710364
endloop
endfacet
facet normal 0.097966 -0.994663 -0.032385
outer loop
vertex 0.177013 -0.889903 -2.537626
vertex -0.000000 -0.934271 -1.710364
vertex 0.000000 -0.907337 -2.537626
endloop
endfacet
facet normal -0.097966 -0.994663 -0.032385
outer loop
vertex 0.000000 -0.907337 -2.537626
vertex -0.000000 -0.934271 -1.710364
vertex -0.182267 -0.916320 -1.710364
endloop
endfacet
facet normal -0.097966 -0.994663 -0.032385
outer loop
vertex 0.000000 -0.907337 -2.537626
vertex -0.182267 -0.916320 -1.710364
vertex -0.177013 -0.889903 -2.537626
endloop
endfacet
facet normal -0.290132 -0.956438 -0.032385
outer loop
vertex -0.177013 -0.889903 -2.537626
vertex -0.182267 -0.916320 -1.710364
vertex -0.357530 -0.863154 -1.710364
endloop
endfacet
facet normal -0.290132 -0.956438 -0.032385
outer loop
vertex -0.177013 -0.889903 -2.537626
vertex -0.357530 -0.863154 -1.710364
vertex -0.347223 -0.838270 -2.537626
endloop
endfacet
facet normal -0.471150 -0.881459 -0.032385
outer loop
vertex -0.347223 -0.838270 -2.537626
vertex -0.357530 -0.863154 -1.710364
vertex -0.519053 -0.776818 -1.710364
endloop
endfacet
facet normal -0.471150 -0.881458 -0.032385
outer loop
vertex -0.347223 -0.838270 -2.537626
vertex -0.519053 -0.776818 -1.710364
vertex -0.504089 -0.754423 -2.537626
endloop
endfacet
facet normal -0.634060 -0.772605 -0.032385
outer loop
vertex -0.504089 -0.754423 -2.537626
vertex -0.519053 -0.776818 -1.710364
vertex -0.660630 -0.660630 -1.710364
endloop
endfacet
facet normal -0.634060 -0.772606 -0.032385
outer loop
vertex -0.504089 -0.754423 -2.537626
vertex -0.660630 -0.660630 -1.710364
vertex -0.641584 -0.641584 -2.537626
endloop
endfacet
facet normal -0.772606 -0.634060 -0.032385
outer loop
vertex -0.641584 -0.641584 -2.537626
vertex -0.660630 -0.660630 -1.710364
vertex -0.776818 -0.519053 -1.710364
endloop
endfacet
facet normal -0.772605 -0.634061 -0.032385
outer loop
vertex -0.641584 -0.641584 -2.537626
vertex -0.776818 -0.519053 -1.710364
vertex -0.754423 -0.504089 -2.537626
endloop
endfacet
facet normal -0.881458 -0.471150 -0.032385
outer loop
vertex -0.754423 -0.504089 -2.537626
vertex -0.776818 -0.519053 -1.710364
vertex -0.863154 -0.357530 -1.710364
endloop
endfacet
facet normal -0.881459 -0.471149 -0.032385
outer loop
vertex -0.754423 -0.504089 -2.537626
vertex -0.863154 -0.357530 -1.710364
vertex -0.838270 -0.347223 -2.537626
endloop
endfacet
facet normal -0.956438 -0.290133 -0.032385
outer loop
vertex -0.838270 -0.347223 -2.537626
vertex -0.863154 -0.357530 -1.710364
vertex -0.916320 -0.182267 -1.710364
endloop
endfacet
facet normal -0.956438 -0.290132 -0.032385
outer loop
vertex -0.838270 -0.347223 -2.537626
vertex -0.916320 -0.182267 -1.710364
vertex -0.889903 -0.177013 -2.537626
endloop
endfacet
facet normal -0.994663 -0.097965 -0.032385
outer loop
vertex -0.889903 -0.177013 -2.537626
vertex -0.916320 -0.182267 -1.710364
vertex -0.934271 0.000000 -1.710364
endloop
endfacet
facet normal -0.994663 -0.097966 -0.032385
outer loop
vertex -0.889903 -0.177013 -2.537626
vertex -0.934271 0.000000 -1.710364
vertex -0.907337 0.000000 -2.537626
endloop
endfacet
facet normal -0.994663 0.097965 -0.032385
outer loop
vertex -0.907337 0.000000 -2.537626
vertex -0.934271 0.000000 -1.710364
vertex -0.916320 0.182267 -1.710364
endloop
endfacet
facet normal -0.994663 0.097966 -0.032385
outer loop
vertex -0.907337 0.000000 -2.537626
vertex -0.916320 0.182267 -1.710364
vertex -0.889903 0.177013 -2.537626
endloop
endfacet
facet normal -0.956438 0.290133 -0.032385
outer loop
vertex -0.889903 0.177013 -2.537626
vertex -0.916320 0.182267 -1.710364
vertex -0.863154 0.357530 -1.710364
endloop
endfacet
facet normal -0.956438 0.290133 -0.032385
outer loop
vertex -0.889903 0.177013 -2.537626
vertex -0.863154 0.357530 -1.710364
vertex -0.838270 0.347223 -2.537626
endloop
endfacet
facet normal -0.881459 0.471150 -0.032385
outer loop
vertex -0.838270 0.347223 -2.537626
vertex -0.863154 0.357530 -1.710364
vertex -0.776818 0.519053 -1.710364
endloop
endfacet
facet normal -0.881459 0.471149 -0.032385
outer loop
vertex -0.838270 0.347223 -2.537626
vertex -0.776818 0.519053 -1.710364
vertex -0.754423 0.504089 -2.537626
endloop
endfacet
facet normal -0.772605 0.634060 -0.032385
outer loop
vertex -0.754423 0.504089 -2.537626
vertex -0.776818 0.519053 -1.710364
vertex -0.660630 0.660630 -1.710364
endloop
endfacet
facet normal -0.772606 0.634060 -0.032385
outer loop
vertex -0.754423 0.504089 -2.537626
vertex -0.660630 0.660630 -1.710364
vertex -0.641584 0.641584 -2.537626
endloop
endfacet
facet normal -0.634060 0.772605 -0.032385
outer loop
vertex -0.641584 0.641584 -2.537626
vertex -0.660630 0.660630 -1.710364
vertex -0.519053 0.776818 -1.710364
endloop
endfacet
facet normal -0.634060 0.772606 -0.032385
outer loop
vertex -0.641584 0.641584 -2.537626
vertex -0.519053 0.776818 -1.710364
vertex -0.504089 0.754423 -2.537626
endloop
endfacet
facet normal -0.471150 0.881458 -0.032385
outer loop
vertex -0.504089 0.754423 -2.537626
vertex -0.519053 0.776818 -1.710364
vertex -0.357530 0.863154 -1.710364
endloop
endfacet
facet normal -0.471150 0.881459 -0.032385
outer loop
vertex -0.504089 0.754423 -2.537626
vertex -0.357530 0.863154 -1.710364
vertex -0.347223 0.838270 -2.537626
endloop
endfacet
facet normal -0.290132 0.956438 -0.032385
outer loop
vertex -0.347223 0.838270 -2.537626
vertex -0.357530 0.863154 -1.710364
vertex -0.182267 0.916320 -1.710364
endloop
endfacet
facet normal -0.290132 0.956438 -0.032385
outer loop
vertex -0.347223 0.838270 -2.537626
vertex -0.182267 0.916320 -1.710364
vertex -0.177013 0.889903 -2.537626
endloop
endfacet
facet normal -0.097966 0.994663 -0.032385
outer loop
vertex -0.177013 0.889903 -2.537626
vertex -0.182267 0.916320 -1.710364
vertex -0.000000 0.934271 -1.710364
endloop
endfacet
facet normal -0.097966 0.994663 -0.032385
outer loop
vertex -0.177013 0.889903 -2.537626
vertex -0.000000 0.934271 -1.710364
vertex 0.000000 0.907337 -2.537626
endloop
endfacet
endsolid Exported from Blender-4.0.1
